M48
;Layer_Color=9474304
;FILE_FORMAT=2:4
INCH
;TYPE=PLATED
T1F00S00C0.0140
T2F00S00C0.0197
T3F00S00C0.0709
T4F00S00C0.1969
%
T01
X-003661Y-000820
X-004000Y000000
X-003661Y000820
X-002840Y001160
X-002020Y000820
X-001680Y000000
X-002020Y-000820
T02
X-012700Y-002130
X-010850Y-001340
X-009100Y-002400
X-007050Y-002000
Y-001000
X-005600Y-002600
X-004000Y-003000
X-003000
X-002000
X-001000
X000000
Y-002000
Y-001000
X-001000
Y-002000
X001000
Y-003000
Y-001000
X-003800Y-001300
Y001300
X-004000Y003000
X-003000
X-002000
X-001000
X000000
Y002000
Y001000
X-001000
Y002000
X001000
Y003000
Y001000
Y000000
X000000
X-005840Y001370
X-007050Y000650
Y002300
X-010350Y001650
X-011300
X-012200Y002700
X-009200Y-000500
T03
X001789Y-001496
Y001496
T04
X-002840Y000000
M30
