M48
;Layer_Color=9474304
;FILE_FORMAT=2:4
INCH
;TYPE=PLATED
T1F00S00C0.0197
T2F00S00C0.0709
T3F00S00C0.1969
%
T01
X-012700Y-001550
X-010850Y-001600
X-009300Y-002500
X-007050Y-002000
Y-001000
X-005650Y-002050
X-004450Y-002600
X-002000Y-003000
X-001000
X000000
Y-002000
Y-001000
X001000
Y-002000
Y-003000
X003000
Y-002000
Y-001000
X-001000Y-002000
X000000Y000000
Y001000
Y002000
Y003000
X-001000
Y002000
X001000
Y003000
X003000
Y002000
Y001000
Y000000
X001000
Y001000
X-002000Y003000
X-005700Y003050
Y001450
Y-000200
X-004300Y-000900
Y000900
X-007050Y000650
Y002300
X-010350Y001650
X-011300
X-012200Y002700
X-009350Y-000550
T02
X001789Y-001496
Y001496
T03
X-002840Y000000
M30
