G04 Layer_Color=65535*
%FSLAX23Y23*%
%MOIN*%
G70*
G01*
G75*
%ADD23C,0.010*%
%ADD33C,0.010*%
%ADD34C,0.001*%
%ADD35C,0.008*%
%ADD36C,0.004*%
%ADD37C,0.005*%
D23*
X-1227Y-127D02*
G03*
X-1225Y-247I142J-58D01*
G01*
X-943Y-243D02*
G03*
X-943Y-127I-142J58D01*
G01*
X-1162Y-52D02*
X-1008D01*
X-1162Y-318D02*
X-1008D01*
X360Y-189D02*
Y189D01*
X-58Y-50D02*
X-35D01*
X-58Y50D02*
X-35D01*
X-58Y-50D02*
Y50D01*
X-65Y0D02*
X-58D01*
D33*
X-1182Y135D02*
G03*
X-1182Y135I-5J0D01*
G01*
D34*
X707Y0D02*
G03*
X707Y0I-39J0D01*
G01*
D35*
X-601Y-301D02*
Y-199D01*
X-806Y-301D02*
Y-199D01*
X-676Y-301D02*
X-601D01*
X-806D02*
X-731D01*
X-676Y-199D02*
X-601D01*
X-806D02*
X-731D01*
X-546Y282D02*
X-444D01*
X-546Y78D02*
X-444D01*
Y208D02*
Y282D01*
Y78D02*
Y152D01*
X-546Y208D02*
Y282D01*
Y78D02*
Y152D01*
X-981Y243D02*
X-879D01*
X-981Y39D02*
X-879D01*
Y169D02*
Y243D01*
Y39D02*
Y113D01*
X-981Y169D02*
Y243D01*
Y39D02*
Y113D01*
X-796Y-19D02*
X-614D01*
X-796D02*
Y1D01*
X-614Y-19D02*
Y1D01*
Y119D02*
Y139D01*
X-796Y119D02*
Y139D01*
X-614D01*
X-776Y119D02*
Y139D01*
Y-19D02*
Y1D01*
X-796Y-21D02*
X-614D01*
Y-41D02*
Y-21D01*
X-796Y-41D02*
Y-21D01*
X-796Y-159D02*
X-796Y-179D01*
X-614D02*
Y-159D01*
X-796Y-179D02*
X-614D01*
X-634D02*
Y-159D01*
Y-41D02*
Y-21D01*
X-796Y299D02*
X-614D01*
Y279D02*
Y299D01*
X-796Y279D02*
Y299D01*
Y141D02*
Y161D01*
X-614Y141D02*
Y161D01*
X-796Y141D02*
X-614Y141D01*
X-634D02*
X-634Y161D01*
X-634Y279D02*
Y299D01*
X-1009Y117D02*
Y196D01*
X-1205Y117D02*
Y196D01*
X-1009D01*
X-1205Y117D02*
X-1009D01*
X-172Y79D02*
X-156Y94D01*
X-190Y128D02*
X-156Y94D01*
X-206Y112D02*
X-190Y128D01*
X237Y189D02*
X880D01*
X-35D02*
X121D01*
X-35Y-189D02*
Y189D01*
Y-189D02*
X121D01*
X237D02*
X880D01*
Y189D01*
D36*
X-315Y-265D02*
Y-205D01*
X-1285Y15D02*
X-1225D01*
X-320Y175D02*
Y235D01*
X-529Y-175D02*
X-469D01*
X-529Y-5D02*
X-469D01*
X-1285Y160D02*
X-1225D01*
X-1509Y-154D02*
Y154D01*
X-1400Y-157D02*
X-1337D01*
X-1400Y157D02*
X-1337D01*
X-1337Y-145D02*
X-1337Y-157D01*
X-1337Y145D02*
X-1337Y157D01*
D37*
X183Y-225D02*
X172D01*
X177D01*
Y-254D01*
X172Y-260D01*
X166D01*
X160Y-254D01*
X218Y-260D02*
X195D01*
X218Y-237D01*
Y-231D01*
X212Y-225D01*
X201D01*
X195Y-231D01*
X-1407Y245D02*
X-1418D01*
X-1413D01*
Y216D01*
X-1418Y210D01*
X-1424D01*
X-1430Y216D01*
X-1395Y210D02*
X-1383D01*
X-1389D01*
Y245D01*
X-1395Y239D01*
X-1287Y279D02*
X-1293Y285D01*
X-1304D01*
X-1310Y279D01*
Y256D01*
X-1304Y250D01*
X-1293D01*
X-1287Y256D01*
X-1258Y250D02*
Y285D01*
X-1275Y267D01*
X-1252D01*
X-865Y320D02*
Y285D01*
X-848D01*
X-842Y291D01*
Y314D01*
X-848Y320D01*
X-865D01*
X-830Y285D02*
X-818D01*
X-824D01*
Y320D01*
X-830Y314D01*
X-870Y-5D02*
Y-40D01*
X-853D01*
X-847Y-34D01*
Y-11D01*
X-853Y-5D01*
X-870D01*
X-835Y-11D02*
X-829Y-5D01*
X-818D01*
X-812Y-11D01*
Y-17D01*
X-818Y-23D01*
X-823D01*
X-818D01*
X-812Y-28D01*
Y-34D01*
X-818Y-40D01*
X-829D01*
X-835Y-34D01*
X-867Y160D02*
Y125D01*
X-850D01*
X-844Y131D01*
Y154D01*
X-850Y160D01*
X-867D01*
X-809Y125D02*
X-832D01*
X-809Y148D01*
Y154D01*
X-815Y160D01*
X-826D01*
X-832Y154D01*
X-1290Y-245D02*
Y-280D01*
X-1267D01*
X-1255D02*
X-1243D01*
X-1249D01*
Y-245D01*
X-1255Y-251D01*
X-1185Y10D02*
Y-19D01*
X-1179Y-25D01*
X-1168D01*
X-1162Y-19D01*
Y10D01*
X-1150Y-25D02*
X-1138D01*
X-1144D01*
Y10D01*
X-1150Y4D01*
X-187Y-164D02*
Y-141D01*
X-193Y-135D01*
X-204D01*
X-210Y-141D01*
Y-164D01*
X-204Y-170D01*
X-193D01*
X-198Y-158D02*
X-187Y-170D01*
X-193D02*
X-187Y-164D01*
X-175Y-170D02*
X-163D01*
X-169D01*
Y-135D01*
X-175Y-141D01*
X-424Y-31D02*
X-459D01*
Y-14D01*
X-453Y-8D01*
X-441D01*
X-436Y-14D01*
Y-31D01*
Y-19D02*
X-424Y-8D01*
X-453Y4D02*
X-459Y10D01*
Y21D01*
X-453Y27D01*
X-447D01*
X-441Y21D01*
Y16D01*
Y21D01*
X-436Y27D01*
X-430D01*
X-424Y21D01*
Y10D01*
X-430Y4D01*
X-857Y-211D02*
X-863Y-205D01*
X-874D01*
X-880Y-211D01*
Y-234D01*
X-874Y-240D01*
X-863D01*
X-857Y-234D01*
X-845Y-211D02*
X-839Y-205D01*
X-828D01*
X-822Y-211D01*
Y-217D01*
X-828Y-223D01*
X-833D01*
X-828D01*
X-822Y-228D01*
Y-234D01*
X-828Y-240D01*
X-839D01*
X-845Y-234D01*
X-522Y-301D02*
Y-266D01*
X-505D01*
X-499Y-272D01*
Y-284D01*
X-505Y-289D01*
X-522D01*
X-510D02*
X-499Y-301D01*
X-487Y-266D02*
X-464D01*
Y-272D01*
X-487Y-295D01*
Y-301D01*
X-499Y328D02*
X-505Y334D01*
X-516D01*
X-522Y328D01*
Y305D01*
X-516Y299D01*
X-505D01*
X-499Y305D01*
X-464Y299D02*
X-487D01*
X-464Y322D01*
Y328D01*
X-470Y334D01*
X-481D01*
X-487Y328D01*
X-380Y260D02*
Y295D01*
X-363D01*
X-357Y289D01*
Y277D01*
X-363Y272D01*
X-380D01*
X-368D02*
X-357Y260D01*
X-322D02*
X-345D01*
X-322Y283D01*
Y289D01*
X-328Y295D01*
X-339D01*
X-345Y289D01*
X-1280Y-110D02*
Y-75D01*
X-1263D01*
X-1257Y-81D01*
Y-93D01*
X-1263Y-98D01*
X-1280D01*
X-1268D02*
X-1257Y-110D01*
X-1245D02*
X-1233D01*
X-1239D01*
Y-75D01*
X-1245Y-81D01*
X-937Y290D02*
X-943Y296D01*
X-954D01*
X-960Y290D01*
Y267D01*
X-954Y261D01*
X-943D01*
X-937Y267D01*
X-925Y261D02*
X-913D01*
X-919D01*
Y296D01*
X-925Y290D01*
X-230Y-255D02*
Y-220D01*
X-213D01*
X-207Y-226D01*
Y-238D01*
X-213Y-243D01*
X-230D01*
X-218D02*
X-207Y-255D01*
X-178D02*
Y-220D01*
X-195Y-238D01*
X-172D01*
M02*
