G04 Layer_Physical_Order=2*
G04 Layer_Color=16711680*
%FSLAX23Y23*%
%MOIN*%
G70*
G01*
G75*
%ADD12R,0.051X0.059*%
%ADD23C,0.010*%
%ADD24C,0.250*%
%ADD25C,0.091*%
%ADD26C,0.031*%
%ADD27C,0.028*%
%ADD28C,0.079*%
G04:AMPARAMS|DCode=29|XSize=51mil|YSize=59mil|CornerRadius=0mil|HoleSize=0mil|Usage=FLASHONLY|Rotation=240.000|XOffset=0mil|YOffset=0mil|HoleType=Round|Shape=Rectangle|*
%AMROTATEDRECTD29*
4,1,4,-0.013,0.037,0.038,0.007,0.013,-0.037,-0.038,-0.007,-0.013,0.037,0.0*
%
%ADD29ROTATEDRECTD29*%

G04:AMPARAMS|DCode=30|XSize=51mil|YSize=59mil|CornerRadius=0mil|HoleSize=0mil|Usage=FLASHONLY|Rotation=120.000|XOffset=0mil|YOffset=0mil|HoleType=Round|Shape=Rectangle|*
%AMROTATEDRECTD30*
4,1,4,0.038,-0.007,-0.013,-0.037,-0.038,0.007,0.013,0.037,0.038,-0.007,0.0*
%
%ADD30ROTATEDRECTD30*%

%ADD31C,0.079*%
%ADD32C,0.030*%
G36*
X344Y-339D02*
X-1499D01*
Y339D01*
X344D01*
Y-339D01*
D02*
G37*
%LPC*%
G36*
X174Y-95D02*
X164Y-96D01*
X151Y-101D01*
X139Y-110D01*
X131Y-122D01*
X125Y-135D01*
X124Y-145D01*
X174D01*
Y-95D01*
D02*
G37*
G36*
X184D02*
Y-145D01*
X234D01*
X233Y-135D01*
X227Y-122D01*
X218Y-110D01*
X207Y-101D01*
X193Y-96D01*
X184Y-95D01*
D02*
G37*
G36*
X-595Y-141D02*
Y-185D01*
X-551D01*
X-552Y-177D01*
X-557Y-165D01*
X-565Y-155D01*
X-575Y-147D01*
X-587Y-142D01*
X-595Y-141D01*
D02*
G37*
G36*
X234Y-155D02*
X184D01*
Y-205D01*
X193Y-203D01*
X207Y-198D01*
X218Y-189D01*
X227Y-177D01*
X233Y-164D01*
X234Y-155D01*
D02*
G37*
G36*
X-605Y-141D02*
X-613Y-142D01*
X-625Y-147D01*
X-635Y-155D01*
X-643Y-165D01*
X-648Y-177D01*
X-649Y-185D01*
X-605D01*
Y-141D01*
D02*
G37*
G36*
X-622Y-5D02*
X-652D01*
Y-40D01*
X-622D01*
Y-5D01*
D02*
G37*
G36*
X-1120Y9D02*
X-1128Y8D01*
X-1140Y3D01*
X-1150Y-5D01*
X-1158Y-15D01*
X-1163Y-27D01*
X-1164Y-35D01*
X-1120D01*
Y9D01*
D02*
G37*
G36*
X-662Y-5D02*
X-693D01*
Y-40D01*
X-662D01*
Y-5D01*
D02*
G37*
G36*
X-1120Y-45D02*
X-1164D01*
X-1163Y-53D01*
X-1158Y-65D01*
X-1150Y-75D01*
X-1140Y-83D01*
X-1128Y-88D01*
X-1120Y-89D01*
Y-45D01*
D02*
G37*
G36*
X-1066D02*
X-1110D01*
Y-89D01*
X-1102Y-88D01*
X-1090Y-83D01*
X-1080Y-75D01*
X-1072Y-65D01*
X-1067Y-53D01*
X-1066Y-45D01*
D02*
G37*
G36*
X-168Y-204D02*
X-198Y-221D01*
X-183Y-248D01*
X-153Y-231D01*
X-168Y-204D01*
D02*
G37*
G36*
X-605Y-195D02*
X-649D01*
X-648Y-203D01*
X-643Y-215D01*
X-635Y-225D01*
X-625Y-233D01*
X-613Y-238D01*
X-605Y-239D01*
Y-195D01*
D02*
G37*
G36*
X-1066Y-235D02*
X-1110D01*
Y-279D01*
X-1102Y-278D01*
X-1090Y-273D01*
X-1080Y-265D01*
X-1072Y-255D01*
X-1067Y-243D01*
X-1066Y-235D01*
D02*
G37*
G36*
X-1220Y292D02*
X-1228Y290D01*
X-1236Y286D01*
X-1240Y278D01*
X-1242Y270D01*
X-1240Y262D01*
X-1236Y254D01*
X-1231Y251D01*
Y-265D01*
X-1231Y-265D01*
X-1230Y-269D01*
X-1228Y-273D01*
X-1193Y-308D01*
X-1193Y-308D01*
X-1189Y-310D01*
X-1185Y-311D01*
X-1185Y-311D01*
X-600D01*
X-600Y-311D01*
X-596Y-310D01*
X-592Y-308D01*
X-565Y-281D01*
X-560Y-282D01*
X-552Y-280D01*
X-544Y-276D01*
X-540Y-268D01*
X-538Y-260D01*
X-540Y-252D01*
X-544Y-244D01*
X-552Y-240D01*
X-560Y-238D01*
X-568Y-240D01*
X-576Y-244D01*
X-580Y-252D01*
X-582Y-260D01*
X-581Y-265D01*
X-605Y-289D01*
X-1180D01*
X-1209Y-260D01*
Y251D01*
X-1204Y254D01*
X-1200Y262D01*
X-1198Y270D01*
X-1200Y278D01*
X-1204Y286D01*
X-1212Y290D01*
X-1220Y292D01*
D02*
G37*
G36*
X-1120Y-235D02*
X-1164D01*
X-1163Y-243D01*
X-1158Y-255D01*
X-1150Y-265D01*
X-1140Y-273D01*
X-1128Y-278D01*
X-1120Y-279D01*
Y-235D01*
D02*
G37*
G36*
X-1110Y-181D02*
Y-225D01*
X-1066D01*
X-1067Y-217D01*
X-1072Y-205D01*
X-1080Y-195D01*
X-1090Y-187D01*
X-1102Y-182D01*
X-1110Y-181D01*
D02*
G37*
G36*
X174Y-155D02*
X124D01*
X125Y-164D01*
X131Y-177D01*
X139Y-189D01*
X151Y-198D01*
X164Y-203D01*
X174Y-205D01*
Y-155D01*
D02*
G37*
G36*
X-1120Y-181D02*
X-1128Y-182D01*
X-1140Y-187D01*
X-1150Y-195D01*
X-1158Y-205D01*
X-1163Y-217D01*
X-1164Y-225D01*
X-1120D01*
Y-181D01*
D02*
G37*
G36*
X-551Y-195D02*
X-595D01*
Y-239D01*
X-587Y-238D01*
X-575Y-233D01*
X-565Y-225D01*
X-557Y-215D01*
X-552Y-203D01*
X-551Y-195D01*
D02*
G37*
G36*
X-130Y-182D02*
X-159Y-199D01*
X-144Y-226D01*
X-114Y-208D01*
X-130Y-182D01*
D02*
G37*
G36*
X-1110Y9D02*
Y-35D01*
X-1066D01*
X-1067Y-27D01*
X-1072Y-15D01*
X-1080Y-5D01*
X-1090Y3D01*
X-1102Y8D01*
X-1110Y9D01*
D02*
G37*
G36*
X-183Y248D02*
X-198Y221D01*
X-168Y204D01*
X-153Y231D01*
X-183Y248D01*
D02*
G37*
G36*
X-1120Y260D02*
X-1164D01*
X-1163Y252D01*
X-1158Y240D01*
X-1150Y230D01*
X-1140Y222D01*
X-1128Y217D01*
X-1120Y216D01*
Y260D01*
D02*
G37*
G36*
X-203Y213D02*
X-218Y188D01*
X-222Y190D01*
X-253Y136D01*
X-262Y139D01*
X-266Y139D01*
X-269Y141D01*
X-276Y144D01*
X-284Y145D01*
X-292Y144D01*
X-299Y141D01*
X-302Y139D01*
X-306Y139D01*
X-327Y134D01*
X-348Y125D01*
X-367Y114D01*
X-370Y111D01*
X-374Y110D01*
X-381Y107D01*
X-387Y103D01*
X-391Y97D01*
X-394Y90D01*
X-395Y86D01*
X-398Y83D01*
X-409Y64D01*
X-417Y45D01*
X-483D01*
Y39D01*
X-486Y36D01*
X-488Y36D01*
X-549D01*
Y36D01*
X-551D01*
Y36D01*
X-614D01*
Y-36D01*
X-551D01*
Y-36D01*
X-549D01*
X-549Y-36D01*
X-488D01*
X-486Y-36D01*
X-483Y-39D01*
Y-41D01*
X-486Y-44D01*
X-488Y-44D01*
X-549D01*
Y-59D01*
X-567D01*
X-568Y-58D01*
X-577Y-50D01*
X-588Y-46D01*
X-600Y-44D01*
X-612Y-46D01*
X-623Y-50D01*
X-632Y-58D01*
X-640Y-67D01*
X-644Y-78D01*
X-646Y-90D01*
X-644Y-102D01*
X-640Y-113D01*
X-632Y-122D01*
X-623Y-130D01*
X-612Y-134D01*
X-603Y-135D01*
X-602Y-135D01*
Y-136D01*
X-598D01*
Y-135D01*
X-597Y-135D01*
X-588Y-134D01*
X-577Y-130D01*
X-568Y-122D01*
X-560Y-113D01*
X-556Y-102D01*
X-556Y-101D01*
X-549D01*
Y-116D01*
X-488D01*
X-486Y-116D01*
X-483Y-119D01*
Y-125D01*
X-402D01*
Y-88D01*
X-397Y-85D01*
X-395Y-87D01*
X-394Y-90D01*
X-391Y-97D01*
X-387Y-103D01*
X-381Y-107D01*
X-374Y-110D01*
X-370Y-111D01*
X-367Y-114D01*
X-348Y-125D01*
X-327Y-134D01*
X-306Y-139D01*
X-284Y-140D01*
X-262Y-139D01*
X-253Y-136D01*
X-222Y-190D01*
X-218Y-188D01*
X-203Y-213D01*
X-169Y-193D01*
X-135Y-173D01*
X-147Y-151D01*
X-146Y-146D01*
X-145Y-145D01*
X-175Y-93D01*
X-174Y-90D01*
X-173Y-86D01*
X-170Y-83D01*
X-159Y-64D01*
X-150Y-43D01*
X-145Y-22D01*
X-145Y-18D01*
X-143Y-15D01*
X-140Y-8D01*
X-139Y0D01*
X-140Y8D01*
X-143Y15D01*
X-145Y18D01*
X-145Y22D01*
X-150Y43D01*
X-159Y64D01*
X-170Y83D01*
X-173Y86D01*
X-174Y90D01*
X-175Y93D01*
X-145Y145D01*
X-146Y146D01*
X-147Y151D01*
X-135Y173D01*
X-169Y193D01*
X-203Y213D01*
D02*
G37*
G36*
X-326Y215D02*
X-370D01*
Y171D01*
X-362Y172D01*
X-350Y177D01*
X-340Y185D01*
X-332Y195D01*
X-327Y207D01*
X-326Y215D01*
D02*
G37*
G36*
X-144Y226D02*
X-159Y199D01*
X-130Y182D01*
X-114Y208D01*
X-144Y226D01*
D02*
G37*
G36*
X-1120Y314D02*
X-1128Y313D01*
X-1140Y308D01*
X-1150Y300D01*
X-1158Y290D01*
X-1163Y278D01*
X-1164Y270D01*
X-1120D01*
Y314D01*
D02*
G37*
G36*
X-1110D02*
Y270D01*
X-1066D01*
X-1067Y278D01*
X-1072Y290D01*
X-1080Y300D01*
X-1090Y308D01*
X-1102Y313D01*
X-1110Y314D01*
D02*
G37*
G36*
X-370Y269D02*
Y225D01*
X-326D01*
X-327Y233D01*
X-332Y245D01*
X-340Y255D01*
X-350Y263D01*
X-362Y268D01*
X-370Y269D01*
D02*
G37*
G36*
X-1066Y260D02*
X-1110D01*
Y216D01*
X-1102Y217D01*
X-1090Y222D01*
X-1080Y230D01*
X-1072Y240D01*
X-1067Y252D01*
X-1066Y260D01*
D02*
G37*
G36*
X-380Y269D02*
X-388Y268D01*
X-400Y263D01*
X-410Y255D01*
X-418Y245D01*
X-423Y233D01*
X-424Y225D01*
X-380D01*
Y269D01*
D02*
G37*
G36*
Y215D02*
X-424D01*
X-423Y207D01*
X-418Y195D01*
X-410Y185D01*
X-400Y177D01*
X-388Y172D01*
X-380Y171D01*
Y215D01*
D02*
G37*
G36*
X-1066Y80D02*
X-1110D01*
Y36D01*
X-1102Y37D01*
X-1090Y42D01*
X-1080Y50D01*
X-1072Y60D01*
X-1067Y72D01*
X-1066Y80D01*
D02*
G37*
G36*
X-1120Y134D02*
X-1128Y133D01*
X-1140Y128D01*
X-1150Y120D01*
X-1158Y110D01*
X-1163Y98D01*
X-1164Y90D01*
X-1120D01*
Y134D01*
D02*
G37*
G36*
Y80D02*
X-1164D01*
X-1163Y72D01*
X-1158Y60D01*
X-1150Y50D01*
X-1140Y42D01*
X-1128Y37D01*
X-1120Y36D01*
Y80D01*
D02*
G37*
G36*
X-662Y40D02*
X-693D01*
Y5D01*
X-662D01*
Y40D01*
D02*
G37*
G36*
X-622D02*
X-652D01*
Y5D01*
X-622D01*
Y40D01*
D02*
G37*
G36*
X174Y205D02*
X164Y203D01*
X151Y198D01*
X139Y189D01*
X131Y177D01*
X125Y164D01*
X124Y155D01*
X174D01*
Y205D01*
D02*
G37*
G36*
X184D02*
Y155D01*
X234D01*
X233Y164D01*
X227Y177D01*
X218Y189D01*
X207Y198D01*
X193Y203D01*
X184Y205D01*
D02*
G37*
G36*
X234Y145D02*
X184D01*
Y95D01*
X193Y96D01*
X207Y101D01*
X218Y110D01*
X227Y122D01*
X233Y135D01*
X234Y145D01*
D02*
G37*
G36*
X-1110Y134D02*
Y90D01*
X-1066D01*
X-1067Y98D01*
X-1072Y110D01*
X-1080Y120D01*
X-1090Y128D01*
X-1102Y133D01*
X-1110Y134D01*
D02*
G37*
G36*
X174Y145D02*
X124D01*
X125Y135D01*
X131Y122D01*
X139Y110D01*
X151Y101D01*
X164Y96D01*
X174Y95D01*
Y145D01*
D02*
G37*
%LPD*%
D12*
X-443Y-80D02*
D03*
X-517D02*
D03*
X-443Y0D02*
D03*
X-517D02*
D03*
X-583D02*
D03*
X-657D02*
D03*
D23*
X-600Y-300D02*
X-560Y-260D01*
X-1220Y-265D02*
Y270D01*
Y-265D02*
X-1185Y-300D01*
X-600D01*
D24*
X-284Y0D02*
D03*
D25*
X179Y150D02*
D03*
Y-150D02*
D03*
D26*
X-380Y130D02*
D03*
X-400Y300D02*
D03*
X-300D02*
D03*
X-100Y-100D02*
D03*
Y100D02*
D03*
X-560Y-260D02*
D03*
X-400Y-300D02*
D03*
X-300D02*
D03*
X-705Y-200D02*
D03*
Y-100D02*
D03*
Y65D02*
D03*
Y230D02*
D03*
X-1220Y270D02*
D03*
X-1130Y165D02*
D03*
X-584Y137D02*
D03*
X-910Y-240D02*
D03*
X-920Y-50D02*
D03*
X-1035Y165D02*
D03*
X-1270Y-213D02*
D03*
X0Y0D02*
D03*
Y100D02*
D03*
Y200D02*
D03*
Y300D02*
D03*
Y-100D02*
D03*
Y-200D02*
D03*
Y-300D02*
D03*
X-100D02*
D03*
Y-200D02*
D03*
Y300D02*
D03*
Y200D02*
D03*
X100Y-300D02*
D03*
Y-200D02*
D03*
Y-100D02*
D03*
Y300D02*
D03*
Y200D02*
D03*
Y100D02*
D03*
Y0D02*
D03*
X-200Y300D02*
D03*
Y-300D02*
D03*
X-380Y-130D02*
D03*
X-1085Y-134D02*
D03*
D27*
X-366Y82D02*
D03*
X-284Y116D02*
D03*
X-202Y82D02*
D03*
X-168Y0D02*
D03*
X-202Y-82D02*
D03*
X-366D02*
D03*
X-400Y0D02*
D03*
D28*
X-375Y220D02*
D03*
X-600Y-90D02*
D03*
Y-190D02*
D03*
D29*
X-204Y133D02*
D03*
X-166Y197D02*
D03*
D30*
Y-197D02*
D03*
X-204Y-133D02*
D03*
D31*
X-1115Y265D02*
D03*
Y85D02*
D03*
Y-40D02*
D03*
Y-230D02*
D03*
D32*
X-600Y-80D02*
X-517D01*
X-443Y0D02*
X-284D01*
X-443Y-80D02*
Y0D01*
X-583D02*
X-517D01*
X-284D02*
X-204Y-133D01*
X-284Y0D02*
X-204Y133D01*
M02*
