G04 Layer_Physical_Order=2*
G04 Layer_Color=16711680*
%FSLAX23Y23*%
%MOIN*%
G70*
G01*
G75*
%ADD19R,0.051X0.059*%
%ADD23C,0.010*%
%ADD24C,0.091*%
%ADD25C,0.236*%
%ADD26C,0.031*%
G04:AMPARAMS|DCode=27|XSize=51mil|YSize=59mil|CornerRadius=0mil|HoleSize=0mil|Usage=FLASHONLY|Rotation=240.000|XOffset=0mil|YOffset=0mil|HoleType=Round|Shape=Rectangle|*
%AMROTATEDRECTD27*
4,1,4,-0.013,0.037,0.038,0.007,0.013,-0.037,-0.038,-0.007,-0.013,0.037,0.0*
%
%ADD27ROTATEDRECTD27*%

G04:AMPARAMS|DCode=28|XSize=51mil|YSize=59mil|CornerRadius=0mil|HoleSize=0mil|Usage=FLASHONLY|Rotation=120.000|XOffset=0mil|YOffset=0mil|HoleType=Round|Shape=Rectangle|*
%AMROTATEDRECTD28*
4,1,4,0.038,-0.007,-0.013,-0.037,-0.038,0.007,0.013,0.037,0.038,-0.007,0.0*
%
%ADD28ROTATEDRECTD28*%

%ADD29C,0.030*%
G36*
X350Y-335D02*
X-1495D01*
Y335D01*
X350D01*
Y-335D01*
D02*
G37*
%LPC*%
G36*
X234Y-155D02*
X184D01*
Y-205D01*
X193Y-203D01*
X207Y-198D01*
X218Y-189D01*
X227Y-177D01*
X233Y-164D01*
X234Y-155D01*
D02*
G37*
G36*
X174Y-95D02*
X164Y-96D01*
X151Y-101D01*
X139Y-110D01*
X131Y-122D01*
X125Y-135D01*
X124Y-145D01*
X174D01*
Y-95D01*
D02*
G37*
G36*
X184D02*
Y-145D01*
X234D01*
X233Y-135D01*
X227Y-122D01*
X218Y-110D01*
X207Y-101D01*
X193Y-96D01*
X184Y-95D01*
D02*
G37*
G36*
X174Y-155D02*
X124D01*
X125Y-164D01*
X131Y-177D01*
X139Y-189D01*
X151Y-198D01*
X164Y-203D01*
X174Y-205D01*
Y-155D01*
D02*
G37*
G36*
X-1220Y296D02*
X-1227Y295D01*
X-1233Y292D01*
X-1238Y288D01*
X-1242Y283D01*
X-1245Y277D01*
X-1246Y270D01*
X-1245Y263D01*
X-1242Y257D01*
X-1238Y252D01*
X-1235Y249D01*
Y-210D01*
X-1234Y-216D01*
X-1231Y-221D01*
X-1141Y-311D01*
X-1136Y-314D01*
X-1130Y-315D01*
X-485D01*
X-479Y-314D01*
X-474Y-311D01*
X-449Y-285D01*
X-445Y-286D01*
X-438Y-285D01*
X-432Y-282D01*
X-427Y-278D01*
X-423Y-273D01*
X-420Y-267D01*
X-419Y-260D01*
X-420Y-253D01*
X-423Y-247D01*
X-427Y-242D01*
X-432Y-238D01*
X-438Y-235D01*
X-445Y-234D01*
X-452Y-235D01*
X-458Y-238D01*
X-463Y-242D01*
X-467Y-247D01*
X-470Y-253D01*
X-471Y-260D01*
X-470Y-264D01*
X-491Y-285D01*
X-1124D01*
X-1205Y-204D01*
Y249D01*
X-1202Y252D01*
X-1198Y257D01*
X-1195Y263D01*
X-1194Y270D01*
X-1195Y277D01*
X-1198Y283D01*
X-1202Y288D01*
X-1207Y292D01*
X-1213Y295D01*
X-1220Y296D01*
D02*
G37*
G36*
X-168Y-204D02*
X-198Y-221D01*
X-183Y-248D01*
X-153Y-231D01*
X-168Y-204D01*
D02*
G37*
G36*
X-130Y-182D02*
X-159Y-199D01*
X-144Y-226D01*
X-114Y-208D01*
X-130Y-182D01*
D02*
G37*
G36*
X-517Y-5D02*
X-548D01*
Y-40D01*
X-517D01*
Y-5D01*
D02*
G37*
G36*
X184Y205D02*
Y155D01*
X234D01*
X233Y164D01*
X227Y177D01*
X218Y189D01*
X207Y198D01*
X193Y203D01*
X184Y205D01*
D02*
G37*
G36*
X174D02*
X164Y203D01*
X151Y198D01*
X139Y189D01*
X131Y177D01*
X125Y164D01*
X124Y155D01*
X174D01*
Y205D01*
D02*
G37*
G36*
X-183Y248D02*
X-198Y221D01*
X-168Y204D01*
X-153Y231D01*
X-183Y248D01*
D02*
G37*
G36*
X-144Y226D02*
X-159Y199D01*
X-130Y182D01*
X-114Y208D01*
X-144Y226D01*
D02*
G37*
G36*
X174Y145D02*
X124D01*
X125Y135D01*
X131Y122D01*
X139Y110D01*
X151Y101D01*
X164Y96D01*
X174Y95D01*
Y145D01*
D02*
G37*
G36*
X-517Y40D02*
X-548D01*
Y5D01*
X-517D01*
Y40D01*
D02*
G37*
G36*
X-203Y213D02*
X-218Y188D01*
X-220Y183D01*
X-221Y182D01*
X-254Y125D01*
X-264Y127D01*
X-284Y129D01*
X-304Y127D01*
X-324Y122D01*
X-342Y115D01*
X-360Y104D01*
X-375Y91D01*
X-388Y76D01*
X-399Y58D01*
X-406Y40D01*
X-406Y40D01*
X-472D01*
X-473Y40D01*
X-477D01*
X-478Y40D01*
X-507D01*
Y0D01*
Y-40D01*
X-478D01*
X-477Y-40D01*
X-473D01*
X-472Y-40D01*
X-406D01*
X-406Y-40D01*
X-399Y-58D01*
X-388Y-76D01*
X-375Y-91D01*
X-360Y-104D01*
X-342Y-115D01*
X-324Y-122D01*
X-304Y-127D01*
X-284Y-129D01*
X-264Y-127D01*
X-254Y-125D01*
X-221Y-182D01*
X-220Y-183D01*
X-218Y-186D01*
X-218Y-188D01*
X-203Y-213D01*
X-169Y-193D01*
X-135Y-173D01*
X-149Y-148D01*
X-150Y-147D01*
X-152Y-144D01*
X-152Y-142D01*
X-187Y-83D01*
X-180Y-76D01*
X-170Y-58D01*
X-162Y-40D01*
X-157Y-20D01*
X-156Y0D01*
X-157Y20D01*
X-162Y40D01*
X-170Y58D01*
X-180Y76D01*
X-187Y83D01*
X-152Y142D01*
X-150Y147D01*
X-149Y148D01*
X-135Y173D01*
X-169Y193D01*
X-203Y213D01*
D02*
G37*
G36*
X234Y145D02*
X184D01*
Y95D01*
X193Y96D01*
X207Y101D01*
X218Y110D01*
X227Y122D01*
X233Y135D01*
X234Y145D01*
D02*
G37*
%LPD*%
D19*
X-438Y0D02*
D03*
X-512D02*
D03*
D23*
X-485Y-300D02*
X-445Y-260D01*
X-1130Y-300D02*
X-485D01*
X-1220Y-210D02*
X-1130Y-300D01*
X-1220Y-210D02*
Y270D01*
D24*
X179Y-150D02*
D03*
Y150D02*
D03*
D25*
X-284Y0D02*
D03*
D26*
X-430Y-90D02*
D03*
Y90D02*
D03*
X-200Y-300D02*
D03*
Y300D02*
D03*
X100Y0D02*
D03*
Y100D02*
D03*
Y200D02*
D03*
Y300D02*
D03*
Y-100D02*
D03*
Y-200D02*
D03*
Y-300D02*
D03*
X-100Y200D02*
D03*
Y300D02*
D03*
Y-200D02*
D03*
Y-300D02*
D03*
X300Y0D02*
D03*
Y100D02*
D03*
Y200D02*
D03*
Y300D02*
D03*
Y-100D02*
D03*
Y-200D02*
D03*
Y-300D02*
D03*
X0D02*
D03*
Y-200D02*
D03*
Y-100D02*
D03*
Y300D02*
D03*
Y200D02*
D03*
Y100D02*
D03*
Y0D02*
D03*
X-445Y-260D02*
D03*
X-1085Y-160D02*
D03*
X-1270Y-180D02*
D03*
X-1035Y165D02*
D03*
X-920Y-50D02*
D03*
X-910Y-240D02*
D03*
X-565Y-205D02*
D03*
X-570Y-20D02*
D03*
Y145D02*
D03*
Y305D02*
D03*
X-1130Y165D02*
D03*
X-1220Y270D02*
D03*
X-705Y230D02*
D03*
Y65D02*
D03*
Y-100D02*
D03*
Y-200D02*
D03*
D27*
X-166Y197D02*
D03*
X-204Y133D02*
D03*
D28*
Y-133D02*
D03*
X-166Y-197D02*
D03*
D29*
X-284Y0D02*
X-204Y133D01*
X-448Y0D02*
X-438D01*
X-284D01*
X-204Y-133D01*
M02*
