G04 Layer_Color=16711935*
%FSLAX23Y23*%
%MOIN*%
G70*
G01*
G75*
%ADD43R,0.059X0.067*%
%ADD54C,0.258*%
%ADD55C,0.099*%
%ADD56C,0.087*%
G04:AMPARAMS|DCode=57|XSize=59mil|YSize=67mil|CornerRadius=0mil|HoleSize=0mil|Usage=FLASHONLY|Rotation=240.000|XOffset=0mil|YOffset=0mil|HoleType=Round|Shape=Rectangle|*
%AMROTATEDRECTD57*
4,1,4,-0.014,0.042,0.044,0.009,0.014,-0.042,-0.044,-0.009,-0.014,0.042,0.0*
%
%ADD57ROTATEDRECTD57*%

G04:AMPARAMS|DCode=58|XSize=59mil|YSize=67mil|CornerRadius=0mil|HoleSize=0mil|Usage=FLASHONLY|Rotation=120.000|XOffset=0mil|YOffset=0mil|HoleType=Round|Shape=Rectangle|*
%AMROTATEDRECTD58*
4,1,4,0.044,-0.009,-0.014,-0.042,-0.044,0.009,0.014,0.042,0.044,-0.009,0.0*
%
%ADD58ROTATEDRECTD58*%

%ADD59C,0.087*%
%ADD60R,0.047X0.061*%
D43*
X-453Y-80D02*
D03*
X-527D02*
D03*
X-453Y20D02*
D03*
X-527D02*
D03*
D54*
X-284Y0D02*
D03*
D55*
X179Y150D02*
D03*
Y-150D02*
D03*
D56*
X-375Y220D02*
D03*
X-610Y-90D02*
D03*
Y-190D02*
D03*
D57*
X-204Y133D02*
D03*
X-166Y197D02*
D03*
D58*
Y-197D02*
D03*
X-204Y-133D02*
D03*
D59*
X-1115Y265D02*
D03*
Y85D02*
D03*
Y-40D02*
D03*
Y-230D02*
D03*
D60*
X-753Y26D02*
D03*
X-589D02*
D03*
M02*
