G04 Layer_Color=65535*
%FSLAX23Y23*%
%MOIN*%
G70*
G01*
G75*
%ADD23C,0.010*%
%ADD30C,0.001*%
%ADD31C,0.010*%
%ADD32C,0.008*%
%ADD33C,0.004*%
%ADD34C,0.005*%
D23*
X-956Y-268D02*
G03*
X-952Y-109I-129J83D01*
G01*
X-1214Y-102D02*
G03*
X-1218Y-261I129J-83D01*
G01*
X-90Y0D02*
X-70D01*
Y-50D02*
Y50D01*
X-35D01*
X-70Y-50D02*
X-35D01*
X360Y-189D02*
Y189D01*
X-1162Y-318D02*
X-1008D01*
X-1162Y-52D02*
X-1008D01*
D30*
X707Y0D02*
G03*
X707Y0I-39J0D01*
G01*
D31*
X-1211Y64D02*
G03*
X-1211Y64I-5J0D01*
G01*
D32*
X-158Y0D02*
G03*
X-158Y0I-126J0D01*
G01*
X-35Y-189D02*
Y189D01*
X880D01*
Y-189D02*
Y189D01*
X-35Y-189D02*
X880D01*
X-634Y279D02*
Y299D01*
Y141D02*
X-634Y161D01*
X-796Y141D02*
X-614Y141D01*
Y161D01*
X-796Y141D02*
Y161D01*
Y279D02*
Y299D01*
X-614Y279D02*
Y299D01*
X-796D02*
X-614D01*
X-634Y-41D02*
Y-21D01*
Y-179D02*
Y-159D01*
X-796Y-179D02*
X-614D01*
Y-159D01*
X-796Y-159D02*
X-796Y-179D01*
Y-41D02*
Y-21D01*
X-614Y-41D02*
Y-21D01*
X-796D02*
X-614D01*
X-776Y-19D02*
Y1D01*
Y119D02*
Y139D01*
X-796D02*
X-614D01*
X-796Y119D02*
Y139D01*
X-614Y119D02*
Y139D01*
Y-19D02*
Y1D01*
X-796Y-19D02*
Y1D01*
Y-19D02*
X-614D01*
X-1009Y117D02*
Y196D01*
X-1205Y117D02*
Y196D01*
X-1009D01*
X-1205Y117D02*
X-1009D01*
X-879Y158D02*
Y232D01*
Y28D02*
Y102D01*
X-981Y158D02*
Y232D01*
Y28D02*
Y102D01*
Y232D02*
X-879D01*
X-981Y28D02*
X-879D01*
X-444Y208D02*
Y282D01*
Y78D02*
Y152D01*
X-546Y208D02*
Y282D01*
Y78D02*
Y152D01*
Y282D02*
X-444D01*
X-546Y78D02*
X-444D01*
X-806Y-199D02*
X-731D01*
X-676D02*
X-601D01*
X-806Y-301D02*
X-731D01*
X-676D02*
X-601D01*
X-806D02*
Y-199D01*
X-601Y-301D02*
Y-199D01*
X-178Y73D02*
X-156Y94D01*
X-190Y128D02*
X-156Y94D01*
X-212Y105D02*
X-190Y128D01*
D33*
X-1337Y145D02*
X-1337Y157D01*
X-1337Y-145D02*
X-1337Y-157D01*
X-1400Y157D02*
X-1337D01*
X-1400Y-157D02*
X-1337D01*
X-1509Y-154D02*
Y154D01*
X-1285Y160D02*
X-1225D01*
X-525Y-5D02*
X-465D01*
X-525Y-175D02*
X-465D01*
X-320Y175D02*
Y235D01*
X-1285Y15D02*
X-1225D01*
X-315Y-260D02*
Y-200D01*
D34*
X-350Y-320D02*
Y-285D01*
X-333D01*
X-327Y-291D01*
Y-303D01*
X-333Y-308D01*
X-350D01*
X-338D02*
X-327Y-320D01*
X-298D02*
Y-285D01*
X-315Y-303D01*
X-292D01*
X-932Y284D02*
X-938Y290D01*
X-949D01*
X-955Y284D01*
Y261D01*
X-949Y255D01*
X-938D01*
X-932Y261D01*
X-920Y255D02*
X-908D01*
X-914D01*
Y290D01*
X-920Y284D01*
X-1245Y-110D02*
X-1280D01*
Y-93D01*
X-1274Y-87D01*
X-1262D01*
X-1257Y-93D01*
Y-110D01*
Y-98D02*
X-1245Y-87D01*
Y-75D02*
Y-63D01*
Y-69D01*
X-1280D01*
X-1274Y-75D01*
X-344Y256D02*
Y291D01*
X-327D01*
X-321Y285D01*
Y273D01*
X-327Y267D01*
X-344D01*
X-333D02*
X-321Y256D01*
X-286D02*
X-309D01*
X-286Y279D01*
Y285D01*
X-292Y291D01*
X-303D01*
X-309Y285D01*
X-502Y324D02*
X-508Y330D01*
X-519D01*
X-525Y324D01*
Y301D01*
X-519Y295D01*
X-508D01*
X-502Y301D01*
X-467Y295D02*
X-490D01*
X-467Y318D01*
Y324D01*
X-473Y330D01*
X-484D01*
X-490Y324D01*
X-525Y-295D02*
Y-260D01*
X-508D01*
X-502Y-266D01*
Y-278D01*
X-508Y-283D01*
X-525D01*
X-513D02*
X-502Y-295D01*
X-490Y-260D02*
X-467D01*
Y-266D01*
X-490Y-289D01*
Y-295D01*
X-857Y-211D02*
X-863Y-205D01*
X-874D01*
X-880Y-211D01*
Y-234D01*
X-874Y-240D01*
X-863D01*
X-857Y-234D01*
X-845Y-211D02*
X-839Y-205D01*
X-828D01*
X-822Y-211D01*
Y-217D01*
X-828Y-223D01*
X-833D01*
X-828D01*
X-822Y-228D01*
Y-234D01*
X-828Y-240D01*
X-839D01*
X-845Y-234D01*
X-420Y-40D02*
X-455D01*
Y-23D01*
X-449Y-17D01*
X-437D01*
X-432Y-23D01*
Y-40D01*
Y-28D02*
X-420Y-17D01*
X-449Y-5D02*
X-455Y1D01*
Y12D01*
X-449Y18D01*
X-443D01*
X-437Y12D01*
Y7D01*
Y12D01*
X-432Y18D01*
X-426D01*
X-420Y12D01*
Y1D01*
X-426Y-5D01*
X-187Y-164D02*
Y-141D01*
X-193Y-135D01*
X-204D01*
X-210Y-141D01*
Y-164D01*
X-204Y-170D01*
X-193D01*
X-198Y-158D02*
X-187Y-170D01*
X-193D02*
X-187Y-164D01*
X-175Y-170D02*
X-163D01*
X-169D01*
Y-135D01*
X-175Y-141D01*
X-1185Y10D02*
Y-19D01*
X-1179Y-25D01*
X-1168D01*
X-1162Y-19D01*
Y10D01*
X-1150Y-25D02*
X-1138D01*
X-1144D01*
Y10D01*
X-1150Y4D01*
X-1300Y-270D02*
X-1265D01*
Y-247D01*
Y-235D02*
Y-223D01*
Y-229D01*
X-1300D01*
X-1294Y-235D01*
X-870Y160D02*
Y125D01*
X-853D01*
X-847Y131D01*
Y154D01*
X-853Y160D01*
X-870D01*
X-812Y125D02*
X-835D01*
X-812Y148D01*
Y154D01*
X-818Y160D01*
X-829D01*
X-835Y154D01*
X-870Y-5D02*
Y-40D01*
X-853D01*
X-847Y-34D01*
Y-11D01*
X-853Y-5D01*
X-870D01*
X-835Y-11D02*
X-829Y-5D01*
X-818D01*
X-812Y-11D01*
Y-17D01*
X-818Y-23D01*
X-823D01*
X-818D01*
X-812Y-28D01*
Y-34D01*
X-818Y-40D01*
X-829D01*
X-835Y-34D01*
X-865Y320D02*
Y285D01*
X-848D01*
X-842Y291D01*
Y314D01*
X-848Y320D01*
X-865D01*
X-830Y285D02*
X-818D01*
X-824D01*
Y320D01*
X-830Y314D01*
X-1284Y268D02*
X-1290Y262D01*
Y251D01*
X-1284Y245D01*
X-1261D01*
X-1255Y251D01*
Y262D01*
X-1261Y268D01*
X-1255Y297D02*
X-1290D01*
X-1272Y280D01*
Y303D01*
X-1440Y223D02*
Y212D01*
Y217D01*
X-1411D01*
X-1405Y212D01*
Y206D01*
X-1411Y200D01*
X-1405Y235D02*
Y247D01*
Y241D01*
X-1440D01*
X-1434Y235D01*
X13Y-225D02*
X2D01*
X7D01*
Y-254D01*
X2Y-260D01*
X-4D01*
X-10Y-254D01*
X48Y-260D02*
X25D01*
X48Y-237D01*
Y-231D01*
X42Y-225D01*
X31D01*
X25Y-231D01*
M02*
