G04 Layer_Color=32896*
%FSLAX23Y23*%
%MOIN*%
G70*
G01*
G75*
%ADD23C,0.010*%
%ADD35C,0.004*%
%ADD36C,0.005*%
%ADD56C,0.008*%
D23*
X-1290Y205D02*
X-435D01*
X-1300Y210D02*
X-1245Y155D01*
X-1265D02*
X-1245D01*
X-1265D02*
X-1225Y115D01*
X-1300Y165D02*
X-1260Y125D01*
X-1300Y165D02*
X-1280D01*
X-1335Y220D02*
X-1280Y165D01*
X-1245Y140D02*
X-435D01*
X-515Y215D02*
X-425D01*
X-435Y140D02*
Y205D01*
Y175D02*
X-410D01*
X-347Y112D01*
X-670Y-130D02*
X-630D01*
X-670Y-165D02*
Y-100D01*
X-755Y-175D02*
X-671D01*
X-1285Y-165D02*
X-670D01*
X-1375Y-80D02*
X-1320Y-135D01*
X-1340D02*
X-1320D01*
X-1340D02*
X-1300Y-175D01*
X-1305Y-145D02*
X-1285D01*
X-1340Y-90D02*
X-1285Y-145D01*
X-1335Y-100D02*
X-670D01*
X-630Y-130D02*
X-620Y-120D01*
X-671Y-175D02*
X-647Y-199D01*
X-1305Y-145D02*
X-1265Y-185D01*
D35*
X-480Y-110D02*
Y-50D01*
X-211Y180D02*
X-159Y150D01*
X-480Y-30D02*
Y30D01*
X-211Y-180D02*
X-159Y-150D01*
X-620Y-30D02*
Y30D01*
D36*
X-495Y-125D02*
Y-160D01*
X-518D01*
X-553D02*
X-530D01*
X-553Y-137D01*
Y-131D01*
X-547Y-125D01*
X-536D01*
X-530Y-131D01*
X-625Y50D02*
Y85D01*
X-642D01*
X-648Y79D01*
Y67D01*
X-642Y62D01*
X-625D01*
X-637D02*
X-648Y50D01*
X-683Y85D02*
X-672Y79D01*
X-660Y67D01*
Y56D01*
X-666Y50D01*
X-677D01*
X-683Y56D01*
Y62D01*
X-677Y67D01*
X-660D01*
X-263Y-181D02*
X-257Y-175D01*
X-246D01*
X-240Y-181D01*
Y-204D01*
X-246Y-210D01*
X-257D01*
X-263Y-204D01*
X-298Y-175D02*
X-287Y-181D01*
X-275Y-193D01*
Y-204D01*
X-281Y-210D01*
X-292D01*
X-298Y-204D01*
Y-198D01*
X-292Y-193D01*
X-275D01*
X-518Y79D02*
X-512Y85D01*
X-501D01*
X-495Y79D01*
Y56D01*
X-501Y50D01*
X-512D01*
X-518Y56D01*
X-530Y85D02*
X-553D01*
Y79D01*
X-530Y56D01*
Y50D01*
X-263Y209D02*
X-257Y215D01*
X-246D01*
X-240Y209D01*
Y186D01*
X-246Y180D01*
X-257D01*
X-263Y186D01*
X-298Y215D02*
X-275D01*
Y197D01*
X-287Y203D01*
X-292D01*
X-298Y197D01*
Y186D01*
X-292Y180D01*
X-281D01*
X-275Y186D01*
D56*
X-452Y-280D02*
X-438D01*
X-445D01*
Y-313D01*
X-438Y-320D01*
X-432D01*
X-425Y-313D01*
X-465Y-320D02*
X-478D01*
X-472D01*
Y-293D01*
X-465D01*
X-498Y-320D02*
Y-293D01*
X-505D01*
X-512Y-300D01*
Y-320D01*
Y-300D01*
X-518Y-293D01*
X-525Y-300D01*
Y-320D01*
X-578Y-280D02*
Y-320D01*
X-592Y-307D01*
X-605Y-320D01*
Y-280D01*
X-618Y-320D02*
X-632D01*
X-625D01*
Y-293D01*
X-618D01*
X-652Y-320D02*
X-665D01*
X-658D01*
Y-280D01*
X-652D01*
X-685Y-320D02*
X-698D01*
X-692D01*
Y-280D01*
X-685D01*
X-718Y-320D02*
X-732D01*
X-725D01*
Y-293D01*
X-718D01*
X-758D02*
X-772D01*
X-778Y-300D01*
Y-320D01*
X-758D01*
X-752Y-313D01*
X-758Y-307D01*
X-778D01*
X-792Y-320D02*
Y-293D01*
X-798D01*
X-805Y-300D01*
Y-320D01*
Y-300D01*
X-812Y-293D01*
X-818Y-300D01*
Y-320D01*
X-832D02*
X-852D01*
X-858Y-313D01*
X-852Y-307D01*
X-838D01*
X-832Y-300D01*
X-838Y-293D01*
X-858D01*
X-912Y-320D02*
Y-280D01*
X-932D01*
X-938Y-287D01*
Y-300D01*
X-932Y-307D01*
X-912D01*
X-951Y-293D02*
Y-313D01*
X-958Y-320D01*
X-978D01*
Y-293D01*
X-991Y-320D02*
X-1005D01*
X-998D01*
Y-280D01*
X-991D01*
X-1025Y-320D02*
X-1045D01*
X-1051Y-313D01*
X-1045Y-307D01*
X-1031D01*
X-1025Y-300D01*
X-1031Y-293D01*
X-1051D01*
X-1085Y-320D02*
X-1071D01*
X-1065Y-313D01*
Y-300D01*
X-1071Y-293D01*
X-1085D01*
X-1091Y-300D01*
Y-307D01*
X-1065D01*
X-1171Y-287D02*
X-1165Y-280D01*
X-1151D01*
X-1145Y-287D01*
Y-313D01*
X-1151Y-320D01*
X-1165D01*
X-1171Y-313D01*
Y-300D01*
X-1158D01*
X-1205Y-320D02*
X-1191D01*
X-1185Y-313D01*
Y-300D01*
X-1191Y-293D01*
X-1205D01*
X-1211Y-300D01*
Y-307D01*
X-1185D01*
X-1225Y-320D02*
Y-293D01*
X-1245D01*
X-1251Y-300D01*
Y-320D01*
X-1285D02*
X-1271D01*
X-1265Y-313D01*
Y-300D01*
X-1271Y-293D01*
X-1285D01*
X-1291Y-300D01*
Y-307D01*
X-1265D01*
X-1305Y-293D02*
Y-320D01*
Y-307D01*
X-1311Y-300D01*
X-1318Y-293D01*
X-1325D01*
X-1351D02*
X-1365D01*
X-1371Y-300D01*
Y-320D01*
X-1351D01*
X-1345Y-313D01*
X-1351Y-307D01*
X-1371D01*
X-1391Y-287D02*
Y-293D01*
X-1385D01*
X-1398D01*
X-1391D01*
Y-313D01*
X-1398Y-320D01*
X-1425D02*
X-1438D01*
X-1445Y-313D01*
Y-300D01*
X-1438Y-293D01*
X-1425D01*
X-1418Y-300D01*
Y-313D01*
X-1425Y-320D01*
X-1458Y-293D02*
Y-320D01*
Y-307D01*
X-1465Y-300D01*
X-1471Y-293D01*
X-1478D01*
X-1340Y-225D02*
Y-252D01*
X-1353Y-265D01*
X-1367Y-252D01*
Y-225D01*
X-1407Y-265D02*
X-1380D01*
X-1407Y-238D01*
Y-232D01*
X-1400Y-225D01*
X-1387D01*
X-1380Y-232D01*
X-1420Y-265D02*
Y-258D01*
X-1427D01*
Y-265D01*
X-1420D01*
X-1480D02*
X-1453D01*
X-1480Y-238D01*
Y-232D01*
X-1473Y-225D01*
X-1460D01*
X-1453Y-232D01*
X-777Y192D02*
X-750D01*
Y172D01*
X-763Y179D01*
X-770D01*
X-777Y172D01*
Y159D01*
X-770Y152D01*
X-757D01*
X-750Y159D01*
X-790Y185D02*
X-797Y192D01*
X-810D01*
X-817Y185D01*
Y159D01*
X-810Y152D01*
X-797D01*
X-790Y159D01*
Y185D01*
X-830Y152D02*
Y192D01*
X-850D01*
X-857Y185D01*
Y172D01*
X-850Y165D01*
X-830D01*
X-843D02*
X-857Y152D01*
X-822Y-112D02*
X-795D01*
Y-132D01*
X-808Y-125D01*
X-815D01*
X-822Y-132D01*
Y-145D01*
X-815Y-152D01*
X-802D01*
X-795Y-145D01*
X-835Y-119D02*
X-842Y-112D01*
X-855D01*
X-862Y-119D01*
Y-145D01*
X-855Y-152D01*
X-842D01*
X-835Y-145D01*
Y-119D01*
X-875Y-152D02*
Y-112D01*
X-895D01*
X-902Y-119D01*
Y-132D01*
X-895Y-139D01*
X-875D01*
X-888D02*
X-902Y-152D01*
M02*
