G04 Layer_Color=65535*
%FSLAX23Y23*%
%MOIN*%
G70*
G01*
G75*
%ADD23C,0.010*%
%ADD30C,0.008*%
%ADD31C,0.001*%
%ADD32C,0.010*%
%ADD33C,0.004*%
%ADD34C,0.005*%
D23*
X-1214Y-102D02*
G03*
X-1218Y-261I129J-83D01*
G01*
X-956Y-268D02*
G03*
X-952Y-109I-129J83D01*
G01*
X360Y-189D02*
Y189D01*
X-70Y-50D02*
X-35D01*
X-70Y50D02*
X-35D01*
X-70Y-50D02*
Y50D01*
X-90Y0D02*
X-70D01*
X-1162Y-52D02*
X-1008D01*
X-1162Y-318D02*
X-1008D01*
D30*
X-158Y0D02*
G03*
X-158Y0I-126J0D01*
G01*
X-212Y105D02*
X-190Y128D01*
X-156Y94D01*
X-178Y73D02*
X-156Y94D01*
X-35Y-189D02*
X880D01*
Y189D01*
X-35D02*
X880D01*
X-35Y-189D02*
Y189D01*
X-601Y-301D02*
Y-199D01*
X-806Y-301D02*
Y-199D01*
X-676Y-301D02*
X-601D01*
X-806D02*
X-731D01*
X-676Y-199D02*
X-601D01*
X-806D02*
X-731D01*
X-546Y78D02*
X-444D01*
X-546Y282D02*
X-444D01*
X-546Y78D02*
Y152D01*
Y208D02*
Y282D01*
X-444Y78D02*
Y152D01*
Y208D02*
Y282D01*
X-981Y28D02*
X-879D01*
X-981Y232D02*
X-879D01*
X-981Y28D02*
Y102D01*
Y158D02*
Y232D01*
X-879Y28D02*
Y102D01*
Y158D02*
Y232D01*
X-1205Y117D02*
X-1009D01*
X-1205Y196D02*
X-1009D01*
X-1205Y117D02*
Y196D01*
X-1009Y117D02*
Y196D01*
X-796Y-19D02*
X-614D01*
X-796D02*
Y1D01*
X-614Y-19D02*
Y1D01*
Y119D02*
Y139D01*
X-796Y119D02*
Y139D01*
X-614D01*
X-776Y119D02*
Y139D01*
Y-19D02*
Y1D01*
X-796Y-21D02*
X-614D01*
Y-41D02*
Y-21D01*
X-796Y-41D02*
Y-21D01*
X-796Y-159D02*
X-796Y-179D01*
X-614D02*
Y-159D01*
X-796Y-179D02*
X-614D01*
X-634D02*
Y-159D01*
Y-41D02*
Y-21D01*
X-796Y299D02*
X-614D01*
Y279D02*
Y299D01*
X-796Y279D02*
Y299D01*
Y141D02*
Y161D01*
X-614Y141D02*
Y161D01*
X-796Y141D02*
X-614Y141D01*
X-634D02*
X-634Y161D01*
X-634Y279D02*
Y299D01*
D31*
X707Y0D02*
G03*
X707Y0I-39J0D01*
G01*
D32*
X-1211Y64D02*
G03*
X-1211Y64I-5J0D01*
G01*
D33*
X-315Y-260D02*
Y-200D01*
X-1285Y15D02*
X-1225D01*
X-320Y175D02*
Y235D01*
X-525Y-175D02*
X-465D01*
X-525Y-5D02*
X-465D01*
X-1285Y160D02*
X-1225D01*
X-1509Y-154D02*
Y154D01*
X-1400Y-157D02*
X-1337D01*
X-1400Y157D02*
X-1337D01*
X-1337Y-145D02*
X-1337Y-157D01*
X-1337Y145D02*
X-1337Y157D01*
D34*
X909Y-193D02*
X938D01*
Y-179D01*
X934Y-174D01*
X929D01*
X924Y-179D01*
Y-193D01*
Y-179D01*
X919Y-174D01*
X914D01*
X909Y-179D01*
Y-193D01*
X938Y-164D02*
X909D01*
X938Y-144D01*
X909D01*
X914Y-114D02*
X909Y-119D01*
Y-129D01*
X914Y-134D01*
X934D01*
X938Y-129D01*
Y-119D01*
X934Y-114D01*
X924Y-104D02*
Y-84D01*
X938Y-74D02*
X909D01*
X919Y-64D01*
X909Y-54D01*
X938D01*
X909Y-29D02*
Y-39D01*
X914Y-44D01*
X934D01*
X938Y-39D01*
Y-29D01*
X934Y-24D01*
X914D01*
X909Y-29D01*
Y-14D02*
X938D01*
Y6D01*
X909Y36D02*
Y16D01*
X938D01*
Y36D01*
X924Y16D02*
Y26D01*
X909Y46D02*
X938Y66D01*
X909D02*
X938Y46D01*
X924Y76D02*
Y96D01*
X914Y106D02*
X909Y111D01*
Y121D01*
X914Y126D01*
X934D01*
X938Y121D01*
Y111D01*
X934Y106D01*
X914D01*
X909Y136D02*
Y156D01*
X914D01*
X934Y136D01*
X938D01*
X914Y166D02*
X909Y171D01*
Y181D01*
X914Y186D01*
X919D01*
X924Y181D01*
Y176D01*
Y181D01*
X929Y186D01*
X934D01*
X938Y181D01*
Y171D01*
X934Y166D01*
X938Y196D02*
Y206D01*
Y201D01*
X909D01*
X914Y196D01*
Y221D02*
X909Y226D01*
Y236D01*
X914Y241D01*
X934D01*
X938Y236D01*
Y226D01*
X934Y221D01*
X914D01*
Y251D02*
X909Y256D01*
Y266D01*
X914Y271D01*
X934D01*
X938Y266D01*
Y256D01*
X934Y251D01*
X914D01*
Y281D02*
X909Y286D01*
Y296D01*
X914Y301D01*
X934D01*
X938Y296D01*
Y286D01*
X934Y281D01*
X914D01*
X938Y311D02*
Y321D01*
Y316D01*
X909D01*
X914Y311D01*
Y336D02*
X909Y341D01*
Y351D01*
X914Y356D01*
X934D01*
X938Y351D01*
Y341D01*
X934Y336D01*
X914D01*
X909Y386D02*
Y366D01*
X924D01*
X919Y376D01*
Y381D01*
X924Y386D01*
X934D01*
X938Y381D01*
Y371D01*
X934Y366D01*
X943Y396D02*
Y416D01*
X909Y426D02*
Y446D01*
Y436D01*
X938D01*
X909Y476D02*
Y456D01*
X938D01*
Y476D01*
X924Y456D02*
Y466D01*
X938Y486D02*
X909D01*
Y501D01*
X914Y506D01*
X924D01*
X929Y501D01*
Y486D01*
Y496D02*
X938Y506D01*
Y516D02*
X909D01*
X919Y526D01*
X909Y536D01*
X938D01*
X909Y546D02*
Y556D01*
Y551D01*
X938D01*
Y546D01*
Y556D01*
Y571D02*
X909D01*
X938Y591D01*
X909D01*
X938Y601D02*
X919D01*
X909Y611D01*
X919Y621D01*
X938D01*
X924D01*
Y601D01*
X909Y631D02*
Y651D01*
Y641D01*
X938D01*
X909Y681D02*
Y661D01*
X938D01*
Y681D01*
X924Y661D02*
Y671D01*
X909Y691D02*
X938D01*
Y706D01*
X934Y711D01*
X914D01*
X909Y706D01*
Y691D01*
X13Y-225D02*
X2D01*
X7D01*
Y-254D01*
X2Y-260D01*
X-4D01*
X-10Y-254D01*
X48Y-260D02*
X25D01*
X48Y-237D01*
Y-231D01*
X42Y-225D01*
X31D01*
X25Y-231D01*
X-1440Y223D02*
Y212D01*
Y217D01*
X-1411D01*
X-1405Y212D01*
Y206D01*
X-1411Y200D01*
X-1405Y235D02*
Y247D01*
Y241D01*
X-1440D01*
X-1434Y235D01*
X-1284Y268D02*
X-1290Y262D01*
Y251D01*
X-1284Y245D01*
X-1261D01*
X-1255Y251D01*
Y262D01*
X-1261Y268D01*
X-1290Y303D02*
Y280D01*
X-1272D01*
X-1278Y292D01*
Y297D01*
X-1272Y303D01*
X-1261D01*
X-1255Y297D01*
Y286D01*
X-1261Y280D01*
X-865Y320D02*
Y285D01*
X-848D01*
X-842Y291D01*
Y314D01*
X-848Y320D01*
X-865D01*
X-830Y285D02*
X-818D01*
X-824D01*
Y320D01*
X-830Y314D01*
X-870Y-5D02*
Y-40D01*
X-853D01*
X-847Y-34D01*
Y-11D01*
X-853Y-5D01*
X-870D01*
X-835Y-11D02*
X-829Y-5D01*
X-818D01*
X-812Y-11D01*
Y-17D01*
X-818Y-23D01*
X-823D01*
X-818D01*
X-812Y-28D01*
Y-34D01*
X-818Y-40D01*
X-829D01*
X-835Y-34D01*
X-870Y160D02*
Y125D01*
X-853D01*
X-847Y131D01*
Y154D01*
X-853Y160D01*
X-870D01*
X-812Y125D02*
X-835D01*
X-812Y148D01*
Y154D01*
X-818Y160D01*
X-829D01*
X-835Y154D01*
X-1300Y-270D02*
X-1265D01*
Y-247D01*
Y-235D02*
Y-223D01*
Y-229D01*
X-1300D01*
X-1294Y-235D01*
X-1185Y10D02*
Y-19D01*
X-1179Y-25D01*
X-1168D01*
X-1162Y-19D01*
Y10D01*
X-1150Y-25D02*
X-1138D01*
X-1144D01*
Y10D01*
X-1150Y4D01*
X-187Y-164D02*
Y-141D01*
X-193Y-135D01*
X-204D01*
X-210Y-141D01*
Y-164D01*
X-204Y-170D01*
X-193D01*
X-198Y-158D02*
X-187Y-170D01*
X-193D02*
X-187Y-164D01*
X-175Y-170D02*
X-163D01*
X-169D01*
Y-135D01*
X-175Y-141D01*
X-420Y-40D02*
X-455D01*
Y-23D01*
X-449Y-17D01*
X-437D01*
X-432Y-23D01*
Y-40D01*
Y-28D02*
X-420Y-17D01*
X-449Y-5D02*
X-455Y1D01*
Y12D01*
X-449Y18D01*
X-443D01*
X-437Y12D01*
Y7D01*
Y12D01*
X-432Y18D01*
X-426D01*
X-420Y12D01*
Y1D01*
X-426Y-5D01*
X-857Y-211D02*
X-863Y-205D01*
X-874D01*
X-880Y-211D01*
Y-234D01*
X-874Y-240D01*
X-863D01*
X-857Y-234D01*
X-845Y-211D02*
X-839Y-205D01*
X-828D01*
X-822Y-211D01*
Y-217D01*
X-828Y-223D01*
X-833D01*
X-828D01*
X-822Y-228D01*
Y-234D01*
X-828Y-240D01*
X-839D01*
X-845Y-234D01*
X-525Y-295D02*
Y-260D01*
X-508D01*
X-502Y-266D01*
Y-278D01*
X-508Y-283D01*
X-525D01*
X-513D02*
X-502Y-295D01*
X-490Y-260D02*
X-467D01*
Y-266D01*
X-490Y-289D01*
Y-295D01*
X-502Y324D02*
X-508Y330D01*
X-519D01*
X-525Y324D01*
Y301D01*
X-519Y295D01*
X-508D01*
X-502Y301D01*
X-467Y295D02*
X-490D01*
X-467Y318D01*
Y324D01*
X-473Y330D01*
X-484D01*
X-490Y324D01*
X-344Y256D02*
Y291D01*
X-327D01*
X-321Y285D01*
Y273D01*
X-327Y267D01*
X-344D01*
X-333D02*
X-321Y256D01*
X-286D02*
X-309D01*
X-286Y279D01*
Y285D01*
X-292Y291D01*
X-303D01*
X-309Y285D01*
X-1245Y-110D02*
X-1280D01*
Y-93D01*
X-1274Y-87D01*
X-1262D01*
X-1257Y-93D01*
Y-110D01*
Y-98D02*
X-1245Y-87D01*
Y-75D02*
Y-63D01*
Y-69D01*
X-1280D01*
X-1274Y-75D01*
X-932Y284D02*
X-938Y290D01*
X-949D01*
X-955Y284D01*
Y261D01*
X-949Y255D01*
X-938D01*
X-932Y261D01*
X-920Y255D02*
X-908D01*
X-914D01*
Y290D01*
X-920Y284D01*
X-350Y-320D02*
Y-285D01*
X-333D01*
X-327Y-291D01*
Y-303D01*
X-333Y-308D01*
X-350D01*
X-338D02*
X-327Y-320D01*
X-298D02*
Y-285D01*
X-315Y-303D01*
X-292D01*
M02*
