G04 Layer_Physical_Order=1*
G04 Layer_Color=255*
%FSLAX23Y23*%
%MOIN*%
G70*
G01*
G75*
%ADD10C,0.047*%
%ADD11R,0.063X0.071*%
%ADD12R,0.071X0.063*%
%ADD13R,0.051X0.059*%
%ADD14R,0.059X0.051*%
%ADD15O,0.024X0.075*%
%ADD16R,0.094X0.240*%
%ADD17R,0.098X0.091*%
%ADD18R,0.083X0.058*%
%ADD19R,0.054X0.018*%
%ADD20R,0.075X0.046*%
%ADD21R,0.075X0.094*%
%ADD22R,0.059X0.079*%
%ADD23C,0.010*%
%ADD24C,0.236*%
%ADD25C,0.091*%
%ADD26C,0.031*%
G36*
X344Y-339D02*
X-1499D01*
Y-171D01*
X-1457D01*
Y-115D01*
X-1447D01*
Y-171D01*
X-1405D01*
Y-136D01*
X-1367D01*
Y-97D01*
X-1362D01*
Y-92D01*
X-1310D01*
Y-58D01*
X-1310D01*
Y-56D01*
X-1348D01*
Y-46D01*
X-1310D01*
Y-32D01*
X-1314D01*
Y3D01*
X-1309Y4D01*
X-1308Y2D01*
X-1291Y-15D01*
Y-54D01*
X-1239D01*
X-1214Y-79D01*
Y-311D01*
X-1108D01*
Y-59D01*
X-1121D01*
Y24D01*
X-1119Y26D01*
X-1115Y31D01*
X-1114Y38D01*
Y90D01*
X-1115Y96D01*
X-1119Y102D01*
X-1121Y103D01*
Y117D01*
X-1121Y117D01*
X-1122Y121D01*
X-1124Y125D01*
X-1124Y125D01*
X-1136Y137D01*
X-1137Y139D01*
X-1141Y141D01*
X-1145Y142D01*
X-1146D01*
X-1146Y142D01*
X-1146Y142D01*
X-1219D01*
Y154D01*
X-1291D01*
Y111D01*
X-1305Y96D01*
X-1310Y98D01*
Y136D01*
X-1357D01*
Y97D01*
X-1367D01*
Y136D01*
X-1405D01*
Y171D01*
X-1447D01*
Y115D01*
X-1457D01*
Y171D01*
X-1499D01*
Y339D01*
X344D01*
Y-339D01*
D02*
G37*
%LPC*%
G36*
X174Y-95D02*
X164Y-96D01*
X151Y-101D01*
X139Y-110D01*
X131Y-122D01*
X125Y-135D01*
X124Y-145D01*
X174D01*
Y-95D01*
D02*
G37*
G36*
X184D02*
Y-145D01*
X234D01*
X233Y-135D01*
X227Y-122D01*
X218Y-110D01*
X207Y-101D01*
X193Y-96D01*
X184Y-95D01*
D02*
G37*
G36*
X234Y-155D02*
X184D01*
Y-205D01*
X193Y-203D01*
X207Y-198D01*
X218Y-189D01*
X227Y-177D01*
X233Y-164D01*
X234Y-155D01*
D02*
G37*
G36*
X-490Y-177D02*
Y-207D01*
X-455D01*
Y-177D01*
X-490D01*
D02*
G37*
G36*
X174Y-155D02*
X124D01*
X125Y-164D01*
X131Y-177D01*
X139Y-189D01*
X151Y-198D01*
X164Y-203D01*
X174Y-205D01*
Y-155D01*
D02*
G37*
G36*
X-1310Y-102D02*
X-1357D01*
Y-136D01*
X-1310D01*
Y-102D01*
D02*
G37*
G36*
X-556Y280D02*
X-685D01*
Y160D01*
X-559D01*
X-545Y147D01*
Y78D01*
X-515D01*
Y73D01*
X-540D01*
Y-8D01*
X-534D01*
X-531Y-11D01*
X-531Y-13D01*
Y-74D01*
X-506D01*
Y-106D01*
X-531D01*
Y-135D01*
X-568Y-172D01*
X-570Y-176D01*
X-571Y-180D01*
X-571Y-180D01*
Y-241D01*
X-576Y-244D01*
X-580Y-252D01*
X-582Y-260D01*
X-580Y-268D01*
X-576Y-276D01*
X-568Y-280D01*
X-560Y-282D01*
X-552Y-280D01*
X-544Y-276D01*
X-540Y-268D01*
X-538Y-260D01*
X-540Y-252D01*
X-544Y-244D01*
X-549Y-241D01*
Y-185D01*
X-539Y-174D01*
X-535Y-177D01*
X-535Y-182D01*
Y-207D01*
X-500D01*
Y-177D01*
X-530D01*
X-534Y-177D01*
X-537Y-173D01*
X-535Y-171D01*
X-531Y-169D01*
Y-169D01*
X-531Y-169D01*
X-459D01*
Y-106D01*
X-484D01*
Y-74D01*
X-459D01*
Y-13D01*
X-459Y-11D01*
X-456Y-8D01*
X-450D01*
Y73D01*
X-475D01*
Y78D01*
X-445D01*
Y144D01*
X-424Y164D01*
X-398D01*
Y160D01*
X-304D01*
Y132D01*
X-305Y132D01*
X-325Y127D01*
X-345Y119D01*
X-363Y108D01*
X-378Y94D01*
X-392Y78D01*
X-403Y61D01*
X-411Y41D01*
X-416Y21D01*
X-418Y0D01*
X-416Y-21D01*
X-411Y-41D01*
X-403Y-61D01*
X-392Y-78D01*
X-378Y-94D01*
X-363Y-108D01*
X-345Y-119D01*
X-325Y-127D01*
X-307Y-131D01*
X-306Y-135D01*
X-305Y-136D01*
X-305Y-137D01*
X-310Y-143D01*
X-313Y-150D01*
X-314Y-157D01*
X-313Y-165D01*
X-310Y-172D01*
X-305Y-179D01*
X-299Y-183D01*
X-296Y-184D01*
Y-194D01*
X-309D01*
Y-266D01*
X-246D01*
Y-194D01*
X-274D01*
Y-185D01*
X-269Y-183D01*
X-263Y-179D01*
X-258Y-172D01*
X-255Y-165D01*
X-254Y-157D01*
X-255Y-150D01*
X-258Y-143D01*
X-263Y-137D01*
X-263Y-136D01*
X-262Y-135D01*
X-261Y-131D01*
X-243Y-127D01*
X-223Y-119D01*
X-206Y-108D01*
X-190Y-94D01*
X-176Y-78D01*
X-165Y-61D01*
X-157Y-41D01*
X-152Y-21D01*
X-151Y-5D01*
X-151Y-0D01*
X-151Y-0D01*
X-151Y0D01*
X-151Y0D01*
X-151Y0D01*
X-151Y5D01*
X-152Y21D01*
X-157Y41D01*
X-165Y61D01*
X-176Y78D01*
X-190Y94D01*
X-206Y108D01*
X-223Y119D01*
X-243Y127D01*
X-263Y132D01*
X-264Y132D01*
Y160D01*
X-242D01*
Y250D01*
X-398D01*
Y205D01*
X-433D01*
X-440Y203D01*
X-445Y201D01*
X-450Y203D01*
Y230D01*
X-540D01*
Y205D01*
X-545Y203D01*
X-547Y204D01*
X-555Y205D01*
X-556D01*
Y280D01*
D02*
G37*
G36*
X-111Y48D02*
X-146D01*
Y4D01*
X-111D01*
Y48D01*
D02*
G37*
G36*
X-889Y112D02*
X-971D01*
Y37D01*
X-966D01*
Y15D01*
X-990Y-9D01*
X-1050D01*
X-1071Y12D01*
Y24D01*
X-1069Y26D01*
X-1065Y31D01*
X-1064Y38D01*
Y90D01*
X-1065Y96D01*
X-1069Y102D01*
X-1075Y106D01*
X-1082Y108D01*
X-1089Y106D01*
X-1095Y102D01*
X-1099Y96D01*
X-1100Y90D01*
Y38D01*
X-1099Y31D01*
X-1095Y26D01*
X-1093Y24D01*
Y7D01*
X-1093Y7D01*
X-1092Y3D01*
X-1090Y-1D01*
X-1063Y-28D01*
X-1063Y-28D01*
X-1059Y-30D01*
X-1055Y-31D01*
X-1055Y-31D01*
X-1020D01*
Y-59D01*
X-1062D01*
Y-311D01*
X-956D01*
Y-111D01*
X-844D01*
Y-151D01*
X-734D01*
Y-49D01*
X-844D01*
Y-89D01*
X-956D01*
Y-59D01*
X-998D01*
Y-31D01*
X-985D01*
X-985Y-31D01*
X-981Y-30D01*
X-977Y-28D01*
X-947Y2D01*
X-945Y6D01*
X-944Y10D01*
X-944Y10D01*
Y37D01*
X-889D01*
Y112D01*
D02*
G37*
G36*
X-111Y-6D02*
X-146D01*
Y-50D01*
X-111D01*
Y-6D01*
D02*
G37*
G36*
X-66D02*
X-101D01*
Y-50D01*
X-66D01*
Y-6D01*
D02*
G37*
G36*
X-357Y-235D02*
X-388D01*
Y-270D01*
X-357D01*
Y-235D01*
D02*
G37*
G36*
X-317D02*
X-347D01*
Y-270D01*
X-317D01*
Y-235D01*
D02*
G37*
G36*
X-566Y111D02*
X-676D01*
Y9D01*
X-632D01*
Y-49D01*
X-676D01*
Y-151D01*
X-660D01*
Y-209D01*
X-686D01*
Y-291D01*
X-611D01*
Y-209D01*
X-637D01*
Y-151D01*
X-565D01*
Y-49D01*
X-610D01*
Y9D01*
X-566D01*
Y111D01*
D02*
G37*
G36*
X-764Y-255D02*
X-800D01*
Y-295D01*
X-764D01*
Y-255D01*
D02*
G37*
G36*
X-717D02*
X-754D01*
Y-295D01*
X-717D01*
Y-255D01*
D02*
G37*
G36*
X-500Y-217D02*
X-535D01*
Y-248D01*
X-500D01*
Y-217D01*
D02*
G37*
G36*
X-357Y-190D02*
X-388D01*
Y-225D01*
X-357D01*
Y-190D01*
D02*
G37*
G36*
X-317D02*
X-347D01*
Y-225D01*
X-317D01*
Y-190D01*
D02*
G37*
G36*
X-717Y-205D02*
X-754D01*
Y-245D01*
X-717D01*
Y-205D01*
D02*
G37*
G36*
X-455Y-217D02*
X-490D01*
Y-248D01*
X-455D01*
Y-217D01*
D02*
G37*
G36*
X-764Y-205D02*
X-800D01*
Y-245D01*
X-764D01*
Y-205D01*
D02*
G37*
G36*
X-1132Y293D02*
X-1139Y291D01*
X-1145Y287D01*
X-1149Y282D01*
X-1150Y275D01*
Y223D01*
X-1149Y216D01*
X-1145Y211D01*
X-1139Y207D01*
X-1132Y205D01*
X-1125Y207D01*
X-1119Y211D01*
X-1115Y216D01*
X-1114Y223D01*
Y275D01*
X-1115Y282D01*
X-1119Y287D01*
X-1125Y291D01*
X-1132Y293D01*
D02*
G37*
G36*
X-1082D02*
X-1089Y291D01*
X-1095Y287D01*
X-1099Y282D01*
X-1100Y275D01*
Y223D01*
X-1099Y216D01*
X-1095Y211D01*
X-1089Y207D01*
X-1082Y205D01*
X-1075Y207D01*
X-1069Y211D01*
X-1065Y216D01*
X-1064Y223D01*
Y275D01*
X-1065Y282D01*
X-1069Y287D01*
X-1075Y291D01*
X-1082Y293D01*
D02*
G37*
G36*
X-1215Y233D02*
X-1250D01*
Y202D01*
X-1215D01*
Y233D01*
D02*
G37*
G36*
X-1010Y244D02*
X-1027D01*
Y202D01*
X-1023Y203D01*
X-1016Y208D01*
X-1011Y215D01*
X-1010Y223D01*
Y244D01*
D02*
G37*
G36*
X-1260Y233D02*
X-1295D01*
Y202D01*
X-1260D01*
Y233D01*
D02*
G37*
G36*
X-725Y280D02*
X-853D01*
Y206D01*
X-880D01*
Y232D01*
X-980D01*
Y139D01*
X-880D01*
Y165D01*
X-853D01*
Y160D01*
X-810D01*
Y120D01*
X-854D01*
Y-0D01*
X-725D01*
Y120D01*
X-769D01*
Y160D01*
X-725D01*
Y280D01*
D02*
G37*
G36*
X-1027Y296D02*
Y254D01*
X-1010D01*
Y275D01*
X-1011Y283D01*
X-1016Y290D01*
X-1023Y295D01*
X-1027Y296D01*
D02*
G37*
G36*
X-1182Y293D02*
X-1189Y291D01*
X-1195Y287D01*
X-1197Y284D01*
X-1203Y284D01*
X-1204Y286D01*
X-1212Y290D01*
X-1220Y292D01*
X-1228Y290D01*
X-1236Y286D01*
X-1240Y278D01*
X-1242Y270D01*
X-1240Y262D01*
X-1236Y254D01*
X-1228Y250D01*
X-1220Y248D01*
X-1212Y250D01*
X-1205Y254D01*
X-1202Y253D01*
X-1200Y252D01*
Y223D01*
X-1199Y216D01*
X-1195Y211D01*
X-1189Y207D01*
X-1182Y205D01*
X-1175Y207D01*
X-1169Y211D01*
X-1165Y216D01*
X-1164Y223D01*
Y275D01*
X-1165Y282D01*
X-1169Y287D01*
X-1175Y291D01*
X-1182Y293D01*
D02*
G37*
G36*
X-1037Y296D02*
X-1041Y295D01*
X-1048Y290D01*
X-1053Y283D01*
X-1054Y275D01*
Y254D01*
X-1037D01*
Y296D01*
D02*
G37*
G36*
X-500Y277D02*
X-540D01*
Y240D01*
X-500D01*
Y277D01*
D02*
G37*
G36*
X-450D02*
X-490D01*
Y240D01*
X-450D01*
Y277D01*
D02*
G37*
G36*
X-1037Y244D02*
X-1054D01*
Y223D01*
X-1053Y215D01*
X-1048Y208D01*
X-1041Y203D01*
X-1037Y202D01*
Y244D01*
D02*
G37*
G36*
Y111D02*
X-1041Y110D01*
X-1048Y105D01*
X-1053Y98D01*
X-1054Y90D01*
Y69D01*
X-1037D01*
Y111D01*
D02*
G37*
G36*
X-1027D02*
Y69D01*
X-1010D01*
Y90D01*
X-1011Y98D01*
X-1016Y105D01*
X-1023Y110D01*
X-1027Y111D01*
D02*
G37*
G36*
X-1010Y59D02*
X-1027D01*
Y17D01*
X-1023Y18D01*
X-1016Y23D01*
X-1011Y30D01*
X-1010Y38D01*
Y59D01*
D02*
G37*
G36*
X-66Y48D02*
X-101D01*
Y4D01*
X-66D01*
Y48D01*
D02*
G37*
G36*
X-1037Y59D02*
X-1054D01*
Y38D01*
X-1053Y30D01*
X-1048Y23D01*
X-1041Y18D01*
X-1037Y17D01*
Y59D01*
D02*
G37*
G36*
X174Y145D02*
X124D01*
X125Y135D01*
X131Y122D01*
X139Y110D01*
X151Y101D01*
X164Y96D01*
X174Y95D01*
Y145D01*
D02*
G37*
G36*
X-1260Y192D02*
X-1295D01*
Y162D01*
X-1260D01*
Y192D01*
D02*
G37*
G36*
X-1215D02*
X-1250D01*
Y162D01*
X-1215D01*
Y192D01*
D02*
G37*
G36*
X184Y205D02*
Y155D01*
X234D01*
X233Y164D01*
X227Y177D01*
X218Y189D01*
X207Y198D01*
X193Y203D01*
X184Y205D01*
D02*
G37*
G36*
X234Y145D02*
X184D01*
Y95D01*
X193Y96D01*
X207Y101D01*
X218Y110D01*
X227Y122D01*
X233Y135D01*
X234Y145D01*
D02*
G37*
G36*
X174Y205D02*
X164Y203D01*
X151Y198D01*
X139Y189D01*
X131Y177D01*
X125Y164D01*
X124Y155D01*
X174D01*
Y205D01*
D02*
G37*
%LPD*%
D10*
X-284Y-157D02*
D03*
D11*
X-649Y-250D02*
D03*
X-759D02*
D03*
D12*
X-495Y235D02*
D03*
Y125D02*
D03*
X-930Y185D02*
D03*
Y75D02*
D03*
D13*
X-352Y-230D02*
D03*
X-278D02*
D03*
X-357Y205D02*
D03*
X-283D02*
D03*
D14*
X-1255Y-22D02*
D03*
Y52D02*
D03*
X-495Y-212D02*
D03*
Y-138D02*
D03*
Y-42D02*
D03*
Y32D02*
D03*
X-1255Y123D02*
D03*
Y197D02*
D03*
D15*
X-1182Y64D02*
D03*
X-1132D02*
D03*
X-1082D02*
D03*
X-1032D02*
D03*
X-1182Y249D02*
D03*
X-1132D02*
D03*
X-1082D02*
D03*
X-1032D02*
D03*
D16*
X-1009Y-185D02*
D03*
X-1161D02*
D03*
D17*
X-621Y60D02*
D03*
X-790D02*
D03*
X-789Y-100D02*
D03*
X-620D02*
D03*
X-789Y220D02*
D03*
X-620D02*
D03*
D18*
X-1362Y97D02*
D03*
Y-97D02*
D03*
D19*
X-1348Y26D02*
D03*
Y51D02*
D03*
Y-51D02*
D03*
Y-26D02*
D03*
Y0D02*
D03*
D20*
X-1452Y33D02*
D03*
Y-33D02*
D03*
D21*
Y-115D02*
D03*
Y115D02*
D03*
D22*
X-106Y-1D02*
D03*
D23*
X-560Y-180D02*
X-518Y-138D01*
X-560Y-260D02*
Y-180D01*
X-495Y-138D02*
Y-29D01*
Y-138D02*
X-495D01*
X-518D02*
X-495D01*
X-1220Y270D02*
X-1177D01*
X-378Y185D02*
X-357Y205D01*
X-433Y185D02*
X-378D01*
X-495Y122D02*
X-433Y185D01*
X-495Y32D02*
Y125D01*
X-555Y185D02*
X-495Y125D01*
X-585Y185D02*
X-555D01*
X-1243Y64D02*
X-1182D01*
X-284Y0D02*
Y205D01*
X-285Y-223D02*
Y-158D01*
X-620Y220D02*
X-585Y185D01*
X-649Y-250D02*
Y-128D01*
X-1009Y-100D02*
Y-20D01*
Y-155D02*
Y-100D01*
X-789D01*
X-930Y185D02*
X-824D01*
X-955Y10D02*
Y78D01*
X-985Y-20D02*
X-955Y10D01*
X-1009Y-20D02*
X-985D01*
X-1055D02*
X-1009D01*
X-1082Y7D02*
X-1055Y-20D01*
X-1161Y-185D02*
Y-116D01*
X-1255Y-22D02*
X-1161Y-116D01*
X-1452Y-115D02*
Y-33D01*
Y-227D02*
Y-115D01*
Y115D02*
Y277D01*
Y33D02*
Y115D01*
Y-33D02*
Y33D01*
X-1300Y10D02*
X-1268Y-22D01*
X-1300Y10D02*
Y42D01*
X-1309Y51D02*
X-1300Y42D01*
Y86D02*
X-1255Y131D01*
X-1300Y60D02*
Y86D01*
X-1309Y51D02*
X-1300Y60D01*
X-1348Y51D02*
X-1309D01*
X-1146Y131D02*
X-1132Y117D01*
Y64D02*
Y117D01*
X-1082Y7D02*
Y64D01*
X-790Y60D02*
Y220D01*
X-621Y-100D02*
Y60D01*
X-1132Y-126D02*
Y64D01*
X-1255Y131D02*
X-1146D01*
X-1145D01*
X-495Y-138D02*
X-482D01*
D24*
X-284Y0D02*
D03*
D25*
X179Y150D02*
D03*
Y-150D02*
D03*
D26*
X-380Y130D02*
D03*
X-400Y300D02*
D03*
X-300D02*
D03*
X-100Y-100D02*
D03*
Y100D02*
D03*
X-560Y-260D02*
D03*
X-400Y-300D02*
D03*
X-300D02*
D03*
X-705Y-200D02*
D03*
Y-100D02*
D03*
Y65D02*
D03*
Y230D02*
D03*
X-1220Y270D02*
D03*
X-1130Y165D02*
D03*
X-570Y140D02*
D03*
X-910Y-240D02*
D03*
X-920Y-50D02*
D03*
X-1035Y165D02*
D03*
X-1270Y-180D02*
D03*
X-1085Y-160D02*
D03*
X0Y0D02*
D03*
Y100D02*
D03*
Y200D02*
D03*
Y300D02*
D03*
Y-100D02*
D03*
Y-200D02*
D03*
Y-300D02*
D03*
X-100D02*
D03*
Y-200D02*
D03*
Y300D02*
D03*
Y200D02*
D03*
X100Y-300D02*
D03*
Y-200D02*
D03*
Y-100D02*
D03*
Y300D02*
D03*
Y200D02*
D03*
Y100D02*
D03*
Y0D02*
D03*
X-200Y300D02*
D03*
Y-300D02*
D03*
X-380Y-130D02*
D03*
M02*
