G04 Layer_Physical_Order=1*
G04 Layer_Color=255*
%FSLAX23Y23*%
%MOIN*%
G70*
G01*
G75*
%ADD10R,0.063X0.071*%
%ADD11R,0.071X0.063*%
%ADD12R,0.051X0.059*%
%ADD13R,0.059X0.051*%
%ADD14R,0.094X0.240*%
%ADD15R,0.098X0.091*%
%ADD16R,0.083X0.058*%
%ADD17R,0.054X0.018*%
%ADD18R,0.075X0.046*%
%ADD19R,0.075X0.094*%
%ADD20O,0.024X0.075*%
%ADD21C,0.047*%
%ADD22R,0.059X0.079*%
%ADD23C,0.010*%
%ADD24C,0.024*%
%ADD25C,0.250*%
%ADD26C,0.091*%
%ADD27C,0.031*%
%ADD28C,0.028*%
G36*
X-1150Y109D02*
Y90D01*
Y38D01*
Y-59D01*
X-1193D01*
X-1219Y-32D01*
Y9D01*
X-1283D01*
X-1289Y15D01*
Y21D01*
X-1219D01*
Y39D01*
X-1200D01*
Y38D01*
X-1199Y31D01*
X-1195Y26D01*
X-1189Y22D01*
X-1182Y20D01*
X-1175Y22D01*
X-1169Y26D01*
X-1165Y31D01*
X-1164Y38D01*
Y90D01*
X-1165Y96D01*
X-1169Y102D01*
X-1175Y106D01*
X-1181Y107D01*
X-1180Y112D01*
X-1153D01*
X-1150Y109D01*
D02*
G37*
G36*
X344Y-339D02*
X-1229D01*
Y-330D01*
X-1230Y-326D01*
X-1232Y-322D01*
X-1236Y-320D01*
X-1240Y-319D01*
X-1340D01*
X-1344Y-320D01*
X-1348Y-322D01*
X-1350Y-326D01*
X-1351Y-330D01*
Y-339D01*
X-1499D01*
Y-171D01*
X-1496Y-167D01*
X-1494Y-167D01*
X-1457D01*
Y-115D01*
X-1447D01*
Y-167D01*
X-1409D01*
Y-132D01*
X-1367D01*
Y-97D01*
X-1362D01*
Y-92D01*
X-1314D01*
Y-62D01*
X-1314D01*
Y-56D01*
X-1381D01*
Y-62D01*
X-1409D01*
Y-38D01*
X-1452D01*
Y-33D01*
X-1457D01*
Y-4D01*
X-1494D01*
X-1496Y-4D01*
X-1499Y-0D01*
Y0D01*
X-1496Y4D01*
X-1494Y4D01*
X-1457D01*
Y33D01*
X-1452D01*
Y38D01*
X-1409D01*
Y62D01*
X-1381D01*
Y36D01*
Y11D01*
Y-15D01*
Y-46D01*
X-1314D01*
Y-40D01*
Y3D01*
X-1309Y4D01*
X-1308Y2D01*
X-1291Y-15D01*
Y-54D01*
X-1249D01*
X-1214Y-89D01*
Y-311D01*
X-1108D01*
Y-59D01*
X-1114D01*
Y117D01*
X-1115Y124D01*
X-1119Y130D01*
X-1133Y143D01*
X-1139Y147D01*
X-1146Y149D01*
X-1219D01*
Y154D01*
X-1291D01*
Y111D01*
X-1308Y94D01*
X-1309Y91D01*
X-1312Y92D01*
X-1362D01*
Y97D01*
X-1367D01*
Y132D01*
X-1409D01*
Y167D01*
X-1447D01*
Y115D01*
X-1457D01*
Y167D01*
X-1494D01*
X-1496Y167D01*
X-1499Y171D01*
Y339D01*
X-1351D01*
Y330D01*
X-1350Y326D01*
X-1348Y322D01*
X-1344Y320D01*
X-1340Y319D01*
X-1240D01*
X-1236Y320D01*
X-1232Y322D01*
X-1230Y326D01*
X-1229Y330D01*
Y339D01*
X344D01*
Y-339D01*
D02*
G37*
%LPC*%
G36*
X184Y-99D02*
Y-145D01*
X230D01*
X229Y-136D01*
X224Y-124D01*
X215Y-113D01*
X205Y-105D01*
X192Y-100D01*
X184Y-99D01*
D02*
G37*
G36*
X-1314Y-102D02*
X-1357D01*
Y-132D01*
X-1314D01*
Y-102D01*
D02*
G37*
G36*
X174Y-99D02*
X166Y-100D01*
X153Y-105D01*
X142Y-113D01*
X134Y-124D01*
X129Y-136D01*
X128Y-145D01*
X174D01*
Y-99D01*
D02*
G37*
G36*
Y-155D02*
X128D01*
X129Y-163D01*
X134Y-175D01*
X142Y-186D01*
X153Y-194D01*
X166Y-200D01*
X174Y-201D01*
Y-155D01*
D02*
G37*
G36*
X230D02*
X184D01*
Y-201D01*
X192Y-200D01*
X205Y-194D01*
X215Y-186D01*
X224Y-175D01*
X229Y-163D01*
X230Y-155D01*
D02*
G37*
G36*
X-556Y280D02*
X-685D01*
Y160D01*
X-580D01*
X-545Y126D01*
Y78D01*
X-515D01*
Y73D01*
X-544D01*
Y-8D01*
X-538D01*
X-535Y-11D01*
X-535Y-13D01*
Y-74D01*
X-506D01*
Y-106D01*
X-535D01*
Y-147D01*
X-568Y-180D01*
X-570Y-184D01*
X-571Y-188D01*
X-571Y-188D01*
Y-241D01*
X-576Y-244D01*
X-580Y-252D01*
X-582Y-260D01*
X-580Y-268D01*
X-576Y-276D01*
X-568Y-280D01*
X-560Y-282D01*
X-552Y-280D01*
X-544Y-276D01*
X-540Y-268D01*
X-538Y-260D01*
X-540Y-252D01*
X-544Y-244D01*
X-549Y-241D01*
Y-193D01*
X-540Y-183D01*
X-535Y-185D01*
Y-207D01*
X-504D01*
Y-181D01*
X-530D01*
X-532Y-176D01*
X-525Y-169D01*
X-463D01*
Y-106D01*
X-484D01*
Y-74D01*
X-463D01*
Y-13D01*
X-463Y-11D01*
X-460Y-8D01*
X-454D01*
Y73D01*
X-475D01*
Y78D01*
X-445D01*
Y115D01*
X-402Y158D01*
X-398Y160D01*
Y160D01*
X-398Y160D01*
X-304D01*
Y139D01*
X-306Y139D01*
X-327Y134D01*
X-348Y125D01*
X-367Y114D01*
X-370Y111D01*
X-374Y110D01*
X-381Y107D01*
X-387Y103D01*
X-391Y97D01*
X-394Y90D01*
X-395Y86D01*
X-398Y83D01*
X-409Y64D01*
X-418Y43D01*
X-423Y22D01*
X-423Y18D01*
X-425Y15D01*
X-428Y8D01*
X-429Y0D01*
X-428Y-8D01*
X-425Y-15D01*
X-423Y-18D01*
X-423Y-22D01*
X-418Y-43D01*
X-409Y-64D01*
X-398Y-83D01*
X-395Y-86D01*
X-394Y-90D01*
X-391Y-97D01*
X-387Y-103D01*
X-381Y-107D01*
X-374Y-110D01*
X-370Y-111D01*
X-367Y-114D01*
X-348Y-125D01*
X-327Y-134D01*
X-306Y-139D01*
X-305Y-141D01*
X-305Y-143D01*
X-305Y-144D01*
X-310Y-150D01*
X-313Y-157D01*
X-314Y-165D01*
X-313Y-173D01*
X-310Y-180D01*
X-305Y-186D01*
X-299Y-191D01*
X-296Y-192D01*
Y-199D01*
X-309D01*
Y-271D01*
X-246D01*
Y-199D01*
X-274D01*
Y-193D01*
X-269Y-191D01*
X-263Y-186D01*
X-258Y-180D01*
X-255Y-173D01*
X-254Y-165D01*
X-255Y-157D01*
X-258Y-150D01*
X-263Y-144D01*
X-263Y-143D01*
X-263Y-141D01*
X-262Y-139D01*
X-241Y-134D01*
X-220Y-125D01*
X-201Y-114D01*
X-198Y-111D01*
X-194Y-110D01*
X-187Y-107D01*
X-181Y-103D01*
X-177Y-97D01*
X-174Y-90D01*
X-173Y-86D01*
X-170Y-83D01*
X-159Y-64D01*
X-150Y-43D01*
X-147Y-27D01*
X-142Y-28D01*
Y-45D01*
X-111D01*
Y0D01*
Y45D01*
X-142D01*
Y28D01*
X-147Y27D01*
X-150Y43D01*
X-159Y64D01*
X-170Y83D01*
X-173Y86D01*
X-174Y90D01*
X-177Y97D01*
X-181Y103D01*
X-187Y107D01*
X-194Y110D01*
X-198Y111D01*
X-201Y114D01*
X-220Y125D01*
X-241Y134D01*
X-262Y139D01*
X-264Y139D01*
Y160D01*
X-242D01*
Y250D01*
X-398D01*
Y205D01*
X-404D01*
X-412Y203D01*
X-418Y199D01*
X-446Y171D01*
X-534D01*
X-556Y194D01*
Y280D01*
D02*
G37*
G36*
X-1409Y28D02*
X-1447D01*
Y4D01*
X-1409D01*
Y28D01*
D02*
G37*
G36*
X-70Y45D02*
X-101D01*
Y5D01*
X-70D01*
Y45D01*
D02*
G37*
G36*
X-889Y123D02*
X-971D01*
Y48D01*
X-966D01*
Y15D01*
X-990Y-9D01*
X-1050D01*
X-1071Y12D01*
Y24D01*
X-1069Y26D01*
X-1065Y31D01*
X-1064Y38D01*
Y90D01*
X-1065Y96D01*
X-1069Y102D01*
X-1075Y106D01*
X-1082Y108D01*
X-1089Y106D01*
X-1095Y102D01*
X-1099Y96D01*
X-1100Y90D01*
Y38D01*
X-1099Y31D01*
X-1095Y26D01*
X-1093Y24D01*
Y7D01*
X-1093Y7D01*
X-1092Y3D01*
X-1090Y-1D01*
X-1063Y-28D01*
X-1063Y-28D01*
X-1059Y-30D01*
X-1055Y-31D01*
X-1055Y-31D01*
X-1020D01*
Y-59D01*
X-1062D01*
Y-311D01*
X-956D01*
Y-111D01*
X-844D01*
Y-151D01*
X-734D01*
Y-49D01*
X-844D01*
Y-89D01*
X-956D01*
Y-59D01*
X-998D01*
Y-31D01*
X-985D01*
X-985Y-31D01*
X-981Y-30D01*
X-977Y-28D01*
X-947Y2D01*
X-945Y6D01*
X-944Y10D01*
X-944Y10D01*
Y48D01*
X-889D01*
Y123D01*
D02*
G37*
G36*
X-70Y-5D02*
X-101D01*
Y-45D01*
X-70D01*
Y-5D01*
D02*
G37*
G36*
X-1447Y-4D02*
Y-28D01*
X-1409D01*
Y-4D01*
X-1447D01*
D02*
G37*
G36*
X-357Y-240D02*
X-384D01*
Y-271D01*
X-357D01*
Y-240D01*
D02*
G37*
G36*
X-321D02*
X-347D01*
Y-271D01*
X-321D01*
Y-240D01*
D02*
G37*
G36*
X-764Y-209D02*
X-796D01*
Y-245D01*
X-764D01*
Y-209D01*
D02*
G37*
G36*
Y-255D02*
X-796D01*
Y-291D01*
X-764D01*
Y-255D01*
D02*
G37*
G36*
X-721D02*
X-754D01*
Y-291D01*
X-721D01*
Y-255D01*
D02*
G37*
G36*
X-566Y111D02*
X-676D01*
Y9D01*
X-632D01*
Y-49D01*
X-676D01*
Y-151D01*
X-660D01*
Y-209D01*
X-686D01*
Y-291D01*
X-611D01*
Y-209D01*
X-637D01*
Y-151D01*
X-565D01*
Y-49D01*
X-610D01*
Y9D01*
X-566D01*
Y111D01*
D02*
G37*
G36*
X-357Y-199D02*
X-384D01*
Y-230D01*
X-357D01*
Y-199D01*
D02*
G37*
G36*
X-321D02*
X-347D01*
Y-230D01*
X-321D01*
Y-199D01*
D02*
G37*
G36*
X-463Y-181D02*
X-494D01*
Y-207D01*
X-463D01*
Y-181D01*
D02*
G37*
G36*
X-721Y-209D02*
X-754D01*
Y-245D01*
X-721D01*
Y-209D01*
D02*
G37*
G36*
X-504Y-217D02*
X-535D01*
Y-244D01*
X-504D01*
Y-217D01*
D02*
G37*
G36*
X-463D02*
X-494D01*
Y-244D01*
X-463D01*
Y-217D01*
D02*
G37*
G36*
X-1037Y59D02*
X-1050D01*
Y38D01*
X-1049Y31D01*
X-1045Y26D01*
X-1039Y22D01*
X-1037Y21D01*
Y59D01*
D02*
G37*
G36*
X-1082Y293D02*
X-1089Y291D01*
X-1095Y287D01*
X-1099Y282D01*
X-1100Y275D01*
Y223D01*
X-1099Y216D01*
X-1095Y211D01*
X-1089Y207D01*
X-1082Y205D01*
X-1075Y207D01*
X-1069Y211D01*
X-1065Y216D01*
X-1064Y223D01*
Y275D01*
X-1065Y282D01*
X-1069Y287D01*
X-1075Y291D01*
X-1082Y293D01*
D02*
G37*
G36*
X-725Y280D02*
X-853D01*
Y206D01*
X-880D01*
Y243D01*
X-980D01*
Y150D01*
X-880D01*
Y165D01*
X-853D01*
Y160D01*
X-810D01*
Y120D01*
X-854D01*
Y-0D01*
X-725D01*
Y120D01*
X-769D01*
Y160D01*
X-725D01*
Y280D01*
D02*
G37*
G36*
X-1037Y244D02*
X-1050D01*
Y223D01*
X-1049Y216D01*
X-1045Y211D01*
X-1039Y207D01*
X-1037Y206D01*
Y244D01*
D02*
G37*
G36*
X-1260Y229D02*
X-1291D01*
Y202D01*
X-1260D01*
Y229D01*
D02*
G37*
G36*
X-1219D02*
X-1250D01*
Y202D01*
X-1219D01*
Y229D01*
D02*
G37*
G36*
X-1132Y293D02*
X-1139Y291D01*
X-1145Y287D01*
X-1149Y282D01*
X-1150Y275D01*
Y223D01*
X-1149Y216D01*
X-1145Y211D01*
X-1139Y207D01*
X-1132Y205D01*
X-1125Y207D01*
X-1119Y211D01*
X-1115Y216D01*
X-1114Y223D01*
Y275D01*
X-1115Y282D01*
X-1119Y287D01*
X-1125Y291D01*
X-1132Y293D01*
D02*
G37*
G36*
X-1037Y292D02*
X-1039Y291D01*
X-1045Y287D01*
X-1049Y282D01*
X-1050Y275D01*
Y254D01*
X-1037D01*
Y292D01*
D02*
G37*
G36*
X-1027D02*
Y254D01*
X-1014D01*
Y275D01*
X-1015Y282D01*
X-1019Y287D01*
X-1025Y291D01*
X-1027Y292D01*
D02*
G37*
G36*
X-1182Y293D02*
X-1189Y291D01*
X-1195Y287D01*
X-1197Y284D01*
X-1203Y284D01*
X-1204Y286D01*
X-1212Y290D01*
X-1220Y292D01*
X-1228Y290D01*
X-1236Y286D01*
X-1240Y278D01*
X-1242Y270D01*
X-1240Y262D01*
X-1236Y254D01*
X-1228Y250D01*
X-1220Y248D01*
X-1212Y250D01*
X-1205Y254D01*
X-1202Y253D01*
X-1200Y252D01*
Y223D01*
X-1199Y216D01*
X-1195Y211D01*
X-1189Y207D01*
X-1182Y205D01*
X-1175Y207D01*
X-1169Y211D01*
X-1165Y216D01*
X-1164Y223D01*
Y275D01*
X-1165Y282D01*
X-1169Y287D01*
X-1175Y291D01*
X-1182Y293D01*
D02*
G37*
G36*
X-1014Y244D02*
X-1027D01*
Y206D01*
X-1025Y207D01*
X-1019Y211D01*
X-1015Y216D01*
X-1014Y223D01*
Y244D01*
D02*
G37*
G36*
X-500Y273D02*
X-536D01*
Y240D01*
X-500D01*
Y273D01*
D02*
G37*
G36*
X-454D02*
X-490D01*
Y240D01*
X-454D01*
Y273D01*
D02*
G37*
G36*
X174Y145D02*
X128D01*
X129Y136D01*
X134Y124D01*
X142Y113D01*
X153Y105D01*
X166Y100D01*
X174Y99D01*
Y145D01*
D02*
G37*
G36*
X230D02*
X184D01*
Y99D01*
X192Y100D01*
X205Y105D01*
X215Y113D01*
X224Y124D01*
X229Y136D01*
X230Y145D01*
D02*
G37*
G36*
X-1314Y132D02*
X-1357D01*
Y102D01*
X-1314D01*
Y132D01*
D02*
G37*
G36*
X-1014Y59D02*
X-1027D01*
Y21D01*
X-1025Y22D01*
X-1019Y26D01*
X-1015Y31D01*
X-1014Y38D01*
Y59D01*
D02*
G37*
G36*
X-1037Y107D02*
X-1039Y106D01*
X-1045Y102D01*
X-1049Y96D01*
X-1050Y90D01*
Y69D01*
X-1037D01*
Y107D01*
D02*
G37*
G36*
X-1027D02*
Y69D01*
X-1014D01*
Y90D01*
X-1015Y96D01*
X-1019Y102D01*
X-1025Y106D01*
X-1027Y107D01*
D02*
G37*
G36*
X-1219Y192D02*
X-1250D01*
Y166D01*
X-1219D01*
Y192D01*
D02*
G37*
G36*
X-500Y230D02*
X-536D01*
Y198D01*
X-500D01*
Y230D01*
D02*
G37*
G36*
X-454D02*
X-490D01*
Y198D01*
X-454D01*
Y230D01*
D02*
G37*
G36*
X174Y201D02*
X166Y200D01*
X153Y194D01*
X142Y186D01*
X134Y175D01*
X129Y163D01*
X128Y155D01*
X174D01*
Y201D01*
D02*
G37*
G36*
X184D02*
Y155D01*
X230D01*
X229Y163D01*
X224Y175D01*
X215Y186D01*
X205Y194D01*
X192Y200D01*
X184Y201D01*
D02*
G37*
G36*
X-1260Y192D02*
X-1291D01*
Y166D01*
X-1260D01*
Y192D01*
D02*
G37*
%LPD*%
D10*
X-649Y-250D02*
D03*
X-759D02*
D03*
D11*
X-495Y235D02*
D03*
Y125D02*
D03*
X-930Y196D02*
D03*
Y86D02*
D03*
D12*
X-352Y-235D02*
D03*
X-278D02*
D03*
X-357Y205D02*
D03*
X-283D02*
D03*
D13*
X-1255Y-22D02*
D03*
Y52D02*
D03*
X-499Y-212D02*
D03*
Y-138D02*
D03*
Y-42D02*
D03*
Y32D02*
D03*
X-1255Y123D02*
D03*
Y197D02*
D03*
D14*
X-1009Y-185D02*
D03*
X-1161D02*
D03*
D15*
X-621Y60D02*
D03*
X-790D02*
D03*
X-789Y-100D02*
D03*
X-620D02*
D03*
X-789Y220D02*
D03*
X-620D02*
D03*
D16*
X-1362Y97D02*
D03*
Y-97D02*
D03*
D17*
X-1348Y26D02*
D03*
Y51D02*
D03*
Y-51D02*
D03*
Y-26D02*
D03*
Y0D02*
D03*
D18*
X-1452Y33D02*
D03*
Y-33D02*
D03*
D19*
Y-115D02*
D03*
Y115D02*
D03*
D20*
X-1032Y249D02*
D03*
X-1082D02*
D03*
X-1132D02*
D03*
X-1182D02*
D03*
X-1032Y64D02*
D03*
X-1082D02*
D03*
X-1132D02*
D03*
X-1182D02*
D03*
D21*
X-284Y-165D02*
D03*
D22*
X-106Y0D02*
D03*
D23*
X-495Y-138D02*
Y-29D01*
X-1220Y270D02*
X-1177D01*
X-378Y185D02*
X-357Y205D01*
X-285Y-223D02*
Y-158D01*
X-620Y220D02*
X-585Y185D01*
X-649Y-250D02*
Y-128D01*
X-1009Y-100D02*
Y-20D01*
Y-155D02*
Y-100D01*
X-789D01*
X-930Y185D02*
X-824D01*
X-955Y10D02*
Y78D01*
X-985Y-20D02*
X-955Y10D01*
X-1009Y-20D02*
X-985D01*
X-1055D02*
X-1009D01*
X-1082Y7D02*
X-1055Y-20D01*
X-1161Y-185D02*
Y-116D01*
X-1452Y-115D02*
Y-33D01*
Y-227D02*
Y-115D01*
Y115D02*
Y277D01*
Y33D02*
Y115D01*
Y-33D02*
Y33D01*
X-1300Y10D02*
X-1268Y-22D01*
X-1300Y10D02*
Y42D01*
X-1309Y51D02*
X-1300Y42D01*
Y86D02*
X-1255Y131D01*
X-1300Y60D02*
Y86D01*
X-1309Y51D02*
X-1300Y60D01*
X-1348Y51D02*
X-1309D01*
X-1082Y7D02*
Y64D01*
X-790Y60D02*
Y220D01*
X-621Y-100D02*
Y60D01*
X-1146Y131D02*
X-1145D01*
X-495Y-138D02*
X-482D01*
X-284Y0D02*
Y116D01*
X-495Y32D02*
Y93D01*
X-404Y185D01*
X-378D01*
X-585Y185D02*
X-576D01*
X-516Y125D02*
X-495D01*
X-576Y185D02*
X-567Y176D01*
X-516Y125D01*
X-560Y-260D02*
Y-188D01*
X-510Y-138D01*
X-495D01*
X-400Y0D02*
X-284D01*
X-168D01*
X-366Y-82D02*
X-284Y0D01*
X-202Y82D01*
X-366D02*
X-284Y0D01*
X-202Y-82D01*
X-284Y0D02*
Y205D01*
D24*
X-1246Y57D02*
X-1185D01*
X-1255Y-22D02*
X-1161Y-116D01*
X-1146Y131D02*
X-1132Y117D01*
Y-126D02*
Y117D01*
X-1255Y131D02*
X-1146D01*
D25*
X-284Y0D02*
D03*
D26*
X179Y150D02*
D03*
Y-150D02*
D03*
D27*
X-704Y99D02*
D03*
X-380Y130D02*
D03*
X-400Y300D02*
D03*
X-300D02*
D03*
X-100Y-100D02*
D03*
Y100D02*
D03*
X-560Y-260D02*
D03*
X-400Y-300D02*
D03*
X-300D02*
D03*
X-705Y-200D02*
D03*
Y-100D02*
D03*
Y230D02*
D03*
X-1220Y270D02*
D03*
X-1130Y165D02*
D03*
X-584Y137D02*
D03*
X-910Y-240D02*
D03*
X-920Y-50D02*
D03*
X-1035Y165D02*
D03*
X-1270Y-213D02*
D03*
X0Y0D02*
D03*
Y100D02*
D03*
Y200D02*
D03*
Y300D02*
D03*
Y-100D02*
D03*
Y-200D02*
D03*
Y-300D02*
D03*
X-100D02*
D03*
Y-200D02*
D03*
Y300D02*
D03*
Y200D02*
D03*
X100Y-300D02*
D03*
Y-200D02*
D03*
Y-100D02*
D03*
Y300D02*
D03*
Y200D02*
D03*
Y100D02*
D03*
Y0D02*
D03*
X-200Y300D02*
D03*
Y-300D02*
D03*
X-380Y-130D02*
D03*
X-1085Y-134D02*
D03*
X-1185Y-15D02*
D03*
D28*
X-366Y82D02*
D03*
X-284Y116D02*
D03*
X-202Y82D02*
D03*
X-168Y0D02*
D03*
X-202Y-82D02*
D03*
X-366D02*
D03*
X-400Y0D02*
D03*
M02*
