G04 Layer_Color=8421504*
%FSLAX23Y23*%
%MOIN*%
G70*
G01*
G75*
%ADD10C,0.047*%
%ADD11R,0.063X0.071*%
%ADD12R,0.071X0.063*%
%ADD13R,0.051X0.059*%
%ADD14R,0.059X0.051*%
%ADD15O,0.024X0.075*%
%ADD16R,0.094X0.240*%
%ADD17R,0.098X0.091*%
%ADD18R,0.083X0.058*%
%ADD19R,0.054X0.018*%
%ADD20R,0.075X0.046*%
%ADD21R,0.075X0.094*%
%ADD22R,0.059X0.079*%
D10*
X-284Y-157D02*
D03*
D11*
X-649Y-250D02*
D03*
X-759D02*
D03*
D12*
X-495Y235D02*
D03*
Y125D02*
D03*
X-930Y185D02*
D03*
Y75D02*
D03*
D13*
X-352Y-230D02*
D03*
X-278D02*
D03*
X-357Y205D02*
D03*
X-283D02*
D03*
D14*
X-1255Y-22D02*
D03*
Y52D02*
D03*
X-495Y-212D02*
D03*
Y-138D02*
D03*
Y-42D02*
D03*
Y32D02*
D03*
X-1255Y123D02*
D03*
Y197D02*
D03*
D15*
X-1182Y64D02*
D03*
X-1132D02*
D03*
X-1082D02*
D03*
X-1032D02*
D03*
X-1182Y249D02*
D03*
X-1132D02*
D03*
X-1082D02*
D03*
X-1032D02*
D03*
D16*
X-1009Y-185D02*
D03*
X-1161D02*
D03*
D17*
X-621Y60D02*
D03*
X-790D02*
D03*
X-789Y-100D02*
D03*
X-620D02*
D03*
X-789Y220D02*
D03*
X-620D02*
D03*
D18*
X-1362Y97D02*
D03*
Y-97D02*
D03*
D19*
X-1348Y26D02*
D03*
Y51D02*
D03*
Y-51D02*
D03*
Y-26D02*
D03*
Y0D02*
D03*
D20*
X-1452Y33D02*
D03*
Y-33D02*
D03*
D21*
Y-115D02*
D03*
Y115D02*
D03*
D22*
X-106Y-1D02*
D03*
M02*
