G04 Layer_Color=8388736*
%FSLAX23Y23*%
%MOIN*%
G70*
G01*
G75*
%ADD35C,0.055*%
%ADD36R,0.071X0.079*%
%ADD37R,0.079X0.071*%
%ADD38R,0.059X0.067*%
%ADD39R,0.067X0.059*%
%ADD40O,0.032X0.083*%
%ADD41R,0.093X0.248*%
%ADD42R,0.106X0.099*%
%ADD43R,0.091X0.066*%
%ADD44R,0.062X0.026*%
%ADD45R,0.083X0.054*%
%ADD46R,0.083X0.102*%
%ADD47R,0.067X0.087*%
%ADD48C,0.244*%
%ADD49C,0.099*%
D35*
X-284Y-157D02*
D03*
D36*
X-649Y-250D02*
D03*
X-759D02*
D03*
D37*
X-495Y125D02*
D03*
Y235D02*
D03*
X-930Y75D02*
D03*
Y185D02*
D03*
D38*
X-352Y-230D02*
D03*
X-278D02*
D03*
X-283Y205D02*
D03*
X-357D02*
D03*
D39*
X-1255Y52D02*
D03*
Y-22D02*
D03*
X-495Y-212D02*
D03*
Y-138D02*
D03*
Y-42D02*
D03*
Y32D02*
D03*
X-1255Y197D02*
D03*
Y123D02*
D03*
D40*
X-1182Y64D02*
D03*
X-1132D02*
D03*
X-1082D02*
D03*
X-1032D02*
D03*
X-1182Y249D02*
D03*
X-1132D02*
D03*
X-1082D02*
D03*
X-1032D02*
D03*
D41*
X-1009Y-185D02*
D03*
X-1161D02*
D03*
D42*
X-621Y60D02*
D03*
X-790D02*
D03*
X-789Y-100D02*
D03*
X-620D02*
D03*
X-789Y220D02*
D03*
X-620D02*
D03*
D43*
X-1362Y97D02*
D03*
Y-97D02*
D03*
D44*
X-1348Y26D02*
D03*
Y51D02*
D03*
Y-51D02*
D03*
Y-26D02*
D03*
Y0D02*
D03*
D45*
X-1452Y33D02*
D03*
Y-33D02*
D03*
D46*
Y-115D02*
D03*
Y115D02*
D03*
D47*
X-106Y-1D02*
D03*
D48*
X-284Y0D02*
D03*
D49*
X179Y150D02*
D03*
Y-150D02*
D03*
M02*
