G04 Layer_Color=16711935*
%FSLAX23Y23*%
%MOIN*%
G70*
G01*
G75*
%ADD40R,0.059X0.067*%
%ADD50C,0.244*%
%ADD51C,0.099*%
%ADD52C,0.087*%
G04:AMPARAMS|DCode=53|XSize=59mil|YSize=67mil|CornerRadius=0mil|HoleSize=0mil|Usage=FLASHONLY|Rotation=240.000|XOffset=0mil|YOffset=0mil|HoleType=Round|Shape=Rectangle|*
%AMROTATEDRECTD53*
4,1,4,-0.014,0.042,0.044,0.009,0.014,-0.042,-0.044,-0.009,-0.014,0.042,0.0*
%
%ADD53ROTATEDRECTD53*%

G04:AMPARAMS|DCode=54|XSize=59mil|YSize=67mil|CornerRadius=0mil|HoleSize=0mil|Usage=FLASHONLY|Rotation=120.000|XOffset=0mil|YOffset=0mil|HoleType=Round|Shape=Rectangle|*
%AMROTATEDRECTD54*
4,1,4,0.044,-0.009,-0.014,-0.042,-0.044,0.009,0.014,0.042,0.044,-0.009,0.0*
%
%ADD54ROTATEDRECTD54*%

%ADD55C,0.087*%
D40*
X-443Y-80D02*
D03*
X-517D02*
D03*
X-443Y0D02*
D03*
X-517D02*
D03*
X-583D02*
D03*
X-657D02*
D03*
D50*
X-284D02*
D03*
D51*
X179Y150D02*
D03*
Y-150D02*
D03*
D52*
X-375Y220D02*
D03*
X-600Y-90D02*
D03*
Y-190D02*
D03*
D53*
X-204Y133D02*
D03*
X-166Y197D02*
D03*
D54*
Y-197D02*
D03*
X-204Y-133D02*
D03*
D55*
X-1115Y265D02*
D03*
Y85D02*
D03*
Y-40D02*
D03*
Y-230D02*
D03*
M02*
