G04 Layer_Color=32896*
%FSLAX23Y23*%
%MOIN*%
G70*
G01*
G75*
%ADD33C,0.004*%
%ADD34C,0.005*%
%ADD52C,0.008*%
D33*
X-475Y-30D02*
Y30D01*
X-211Y180D02*
X-159Y150D01*
X-211Y-180D02*
X-159Y-150D01*
D34*
X-250Y160D02*
X-262D01*
X-256D01*
Y195D01*
X-250Y189D01*
X-279Y160D02*
Y166D01*
X-285D01*
Y160D01*
X-279D01*
X-308Y189D02*
X-314Y195D01*
X-326D01*
X-332Y189D01*
Y183D01*
X-326Y177D01*
X-332Y172D01*
Y166D01*
X-326Y160D01*
X-314D01*
X-308Y166D01*
Y172D01*
X-314Y177D01*
X-308Y183D01*
Y189D01*
X-314Y177D02*
X-326D01*
X-343Y148D02*
Y183D01*
X-361D01*
X-367Y177D01*
Y166D01*
X-361Y160D01*
X-343D01*
X-402Y195D02*
X-378D01*
Y177D01*
X-390D01*
X-378D01*
Y160D01*
X-413D02*
X-437Y183D01*
X-448Y160D02*
X-460D01*
X-454D01*
Y195D01*
X-448Y189D01*
X-477D02*
X-483Y195D01*
X-495D01*
X-501Y189D01*
Y166D01*
X-495Y160D01*
X-483D01*
X-477Y166D01*
Y189D01*
X-512D02*
X-518Y195D01*
X-530D01*
X-536Y189D01*
Y166D01*
X-530Y160D01*
X-518D01*
X-512Y166D01*
Y189D01*
X-547Y195D02*
Y172D01*
X-559Y160D01*
X-571Y172D01*
Y195D01*
X-273Y239D02*
X-267Y245D01*
X-256D01*
X-250Y239D01*
Y216D01*
X-256Y210D01*
X-267D01*
X-273Y216D01*
X-308Y245D02*
X-285D01*
Y227D01*
X-297Y233D01*
X-302D01*
X-308Y227D01*
Y216D01*
X-302Y210D01*
X-291D01*
X-285Y216D01*
X-450Y60D02*
X-460D01*
X-455D01*
Y90D01*
X-450Y85D01*
X-475Y60D02*
Y65D01*
X-480D01*
Y60D01*
X-475D01*
X-500Y85D02*
X-505Y90D01*
X-515D01*
X-520Y85D01*
Y80D01*
X-515Y75D01*
X-520Y70D01*
Y65D01*
X-515Y60D01*
X-505D01*
X-500Y65D01*
Y70D01*
X-505Y75D01*
X-500Y80D01*
Y85D01*
X-505Y75D02*
X-515D01*
X-530Y50D02*
Y80D01*
X-545D01*
X-550Y75D01*
Y65D01*
X-545Y60D01*
X-530D01*
X-580Y90D02*
X-560D01*
Y75D01*
X-570D01*
X-560D01*
Y60D01*
X-590D02*
X-610Y80D01*
X-620Y60D02*
X-630D01*
X-625D01*
Y90D01*
X-620Y85D01*
X-645D02*
X-650Y90D01*
X-660D01*
X-665Y85D01*
Y65D01*
X-660Y60D01*
X-650D01*
X-645Y65D01*
Y85D01*
X-675D02*
X-680Y90D01*
X-690D01*
X-695Y85D01*
Y65D01*
X-690Y60D01*
X-680D01*
X-675Y65D01*
Y85D01*
X-705Y90D02*
Y70D01*
X-715Y60D01*
X-725Y70D01*
Y90D01*
X-473Y129D02*
X-467Y135D01*
X-456D01*
X-450Y129D01*
Y106D01*
X-456Y100D01*
X-467D01*
X-473Y106D01*
X-485Y135D02*
X-508D01*
Y129D01*
X-485Y106D01*
Y100D01*
X-260Y-240D02*
X-270D01*
X-265D01*
Y-210D01*
X-260Y-215D01*
X-285Y-240D02*
Y-235D01*
X-290D01*
Y-240D01*
X-285D01*
X-310Y-215D02*
X-315Y-210D01*
X-325D01*
X-330Y-215D01*
Y-220D01*
X-325Y-225D01*
X-330Y-230D01*
Y-235D01*
X-325Y-240D01*
X-315D01*
X-310Y-235D01*
Y-230D01*
X-315Y-225D01*
X-310Y-220D01*
Y-215D01*
X-315Y-225D02*
X-325D01*
X-340Y-250D02*
Y-220D01*
X-355D01*
X-360Y-225D01*
Y-235D01*
X-355Y-240D01*
X-340D01*
X-390Y-210D02*
X-370D01*
Y-225D01*
X-380D01*
X-370D01*
Y-240D01*
X-400D02*
X-420Y-220D01*
X-430Y-240D02*
X-440D01*
X-435D01*
Y-210D01*
X-430Y-215D01*
X-455D02*
X-460Y-210D01*
X-470D01*
X-475Y-215D01*
Y-235D01*
X-470Y-240D01*
X-460D01*
X-455Y-235D01*
Y-215D01*
X-485D02*
X-490Y-210D01*
X-500D01*
X-505Y-215D01*
Y-235D01*
X-500Y-240D01*
X-490D01*
X-485Y-235D01*
Y-215D01*
X-515Y-210D02*
Y-230D01*
X-525Y-240D01*
X-535Y-230D01*
Y-210D01*
X-283Y-161D02*
X-277Y-155D01*
X-266D01*
X-260Y-161D01*
Y-184D01*
X-266Y-190D01*
X-277D01*
X-283Y-184D01*
X-318Y-155D02*
X-307Y-161D01*
X-295Y-173D01*
Y-184D01*
X-301Y-190D01*
X-312D01*
X-318Y-184D01*
Y-178D01*
X-312Y-173D01*
X-295D01*
D52*
X-1320Y-280D02*
Y-307D01*
X-1333Y-320D01*
X-1347Y-307D01*
Y-280D01*
X-1387Y-320D02*
X-1360D01*
X-1387Y-293D01*
Y-287D01*
X-1380Y-280D01*
X-1367D01*
X-1360Y-287D01*
X-1400Y-320D02*
Y-313D01*
X-1407D01*
Y-320D01*
X-1400D01*
X-1433Y-287D02*
X-1440Y-280D01*
X-1453D01*
X-1460Y-287D01*
Y-313D01*
X-1453Y-320D01*
X-1440D01*
X-1433Y-313D01*
Y-287D01*
X-247Y-280D02*
X-233D01*
X-240D01*
Y-313D01*
X-233Y-320D01*
X-227D01*
X-220Y-313D01*
X-260Y-320D02*
X-273D01*
X-267D01*
Y-293D01*
X-260D01*
X-293Y-320D02*
Y-293D01*
X-300D01*
X-307Y-300D01*
Y-320D01*
Y-300D01*
X-313Y-293D01*
X-320Y-300D01*
Y-320D01*
X-373Y-280D02*
Y-320D01*
X-387Y-307D01*
X-400Y-320D01*
Y-280D01*
X-413Y-320D02*
X-427D01*
X-420D01*
Y-293D01*
X-413D01*
X-447Y-320D02*
X-460D01*
X-453D01*
Y-280D01*
X-447D01*
X-480Y-320D02*
X-493D01*
X-487D01*
Y-280D01*
X-480D01*
X-513Y-320D02*
X-527D01*
X-520D01*
Y-293D01*
X-513D01*
X-553D02*
X-567D01*
X-573Y-300D01*
Y-320D01*
X-553D01*
X-547Y-313D01*
X-553Y-307D01*
X-573D01*
X-587Y-320D02*
Y-293D01*
X-593D01*
X-600Y-300D01*
Y-320D01*
Y-300D01*
X-607Y-293D01*
X-613Y-300D01*
Y-320D01*
X-627D02*
X-647D01*
X-653Y-313D01*
X-647Y-307D01*
X-633D01*
X-627Y-300D01*
X-633Y-293D01*
X-653D01*
X-707Y-320D02*
Y-280D01*
X-727D01*
X-733Y-287D01*
Y-300D01*
X-727Y-307D01*
X-707D01*
X-746Y-293D02*
Y-313D01*
X-753Y-320D01*
X-773D01*
Y-293D01*
X-786Y-320D02*
X-800D01*
X-793D01*
Y-280D01*
X-786D01*
X-820Y-320D02*
X-840D01*
X-846Y-313D01*
X-840Y-307D01*
X-826D01*
X-820Y-300D01*
X-826Y-293D01*
X-846D01*
X-880Y-320D02*
X-866D01*
X-860Y-313D01*
Y-300D01*
X-866Y-293D01*
X-880D01*
X-886Y-300D01*
Y-307D01*
X-860D01*
X-966Y-287D02*
X-960Y-280D01*
X-946D01*
X-940Y-287D01*
Y-313D01*
X-946Y-320D01*
X-960D01*
X-966Y-313D01*
Y-300D01*
X-953D01*
X-1000Y-320D02*
X-986D01*
X-980Y-313D01*
Y-300D01*
X-986Y-293D01*
X-1000D01*
X-1006Y-300D01*
Y-307D01*
X-980D01*
X-1020Y-320D02*
Y-293D01*
X-1040D01*
X-1046Y-300D01*
Y-320D01*
X-1080D02*
X-1066D01*
X-1060Y-313D01*
Y-300D01*
X-1066Y-293D01*
X-1080D01*
X-1086Y-300D01*
Y-307D01*
X-1060D01*
X-1100Y-293D02*
Y-320D01*
Y-307D01*
X-1106Y-300D01*
X-1113Y-293D01*
X-1120D01*
X-1146D02*
X-1160D01*
X-1166Y-300D01*
Y-320D01*
X-1146D01*
X-1140Y-313D01*
X-1146Y-307D01*
X-1166D01*
X-1186Y-287D02*
Y-293D01*
X-1180D01*
X-1193D01*
X-1186D01*
Y-313D01*
X-1193Y-320D01*
X-1220D02*
X-1233D01*
X-1240Y-313D01*
Y-300D01*
X-1233Y-293D01*
X-1220D01*
X-1213Y-300D01*
Y-313D01*
X-1220Y-320D01*
X-1253Y-293D02*
Y-320D01*
Y-307D01*
X-1260Y-300D01*
X-1266Y-293D01*
X-1273D01*
M02*
