G04 Layer_Physical_Order=1*
G04 Layer_Color=255*
%FSLAX23Y23*%
%MOIN*%
G70*
G01*
G75*
%ADD10C,0.047*%
%ADD11R,0.059X0.079*%
%ADD12R,0.063X0.071*%
%ADD13R,0.071X0.063*%
%ADD14R,0.051X0.059*%
%ADD15R,0.059X0.051*%
%ADD16O,0.024X0.075*%
%ADD17R,0.085X0.240*%
%ADD18R,0.098X0.091*%
%ADD19R,0.083X0.058*%
%ADD20R,0.054X0.018*%
%ADD21R,0.075X0.046*%
%ADD22R,0.075X0.094*%
%ADD23C,0.010*%
%ADD24C,0.236*%
%ADD25C,0.091*%
%ADD26C,0.031*%
G36*
X350Y-335D02*
X-1495D01*
Y-171D01*
X-1457D01*
Y-115D01*
X-1447D01*
Y-171D01*
X-1405D01*
Y-136D01*
X-1367D01*
Y-97D01*
X-1362D01*
Y-92D01*
X-1310D01*
Y-58D01*
X-1310D01*
Y-56D01*
X-1348D01*
Y-46D01*
X-1310D01*
Y-8D01*
X-1306Y-6D01*
X-1295Y-17D01*
Y-58D01*
X-1241D01*
X-1213Y-86D01*
Y-315D01*
X-1109D01*
Y-55D01*
X-1117D01*
Y22D01*
X-1116Y23D01*
X-1111Y30D01*
X-1110Y38D01*
Y90D01*
X-1111Y98D01*
X-1116Y105D01*
X-1117Y106D01*
Y117D01*
X-1118Y123D01*
X-1121Y128D01*
X-1133Y140D01*
X-1134Y141D01*
X-1139Y145D01*
X-1145Y146D01*
X-1212D01*
X-1215Y149D01*
Y157D01*
X-1215Y158D01*
Y162D01*
X-1215Y163D01*
Y192D01*
X-1295D01*
Y163D01*
X-1295Y162D01*
Y158D01*
X-1295Y157D01*
Y113D01*
X-1306Y101D01*
X-1310Y103D01*
Y136D01*
X-1357D01*
Y97D01*
X-1367D01*
Y136D01*
X-1405D01*
Y171D01*
X-1447D01*
Y115D01*
X-1457D01*
Y171D01*
X-1495D01*
Y335D01*
X350D01*
Y-335D01*
D02*
G37*
%LPC*%
G36*
X184Y-95D02*
Y-145D01*
X234D01*
X233Y-135D01*
X227Y-122D01*
X218Y-110D01*
X207Y-101D01*
X193Y-96D01*
X184Y-95D01*
D02*
G37*
G36*
X-1310Y-102D02*
X-1357D01*
Y-136D01*
X-1310D01*
Y-102D01*
D02*
G37*
G36*
X-561Y275D02*
X-680D01*
Y165D01*
X-561D01*
X-561Y165D01*
Y165D01*
X-557Y163D01*
X-540Y146D01*
Y83D01*
X-510D01*
Y68D01*
X-535D01*
Y-2D01*
X-535Y-3D01*
Y-7D01*
X-535Y-8D01*
Y-78D01*
X-510D01*
Y-102D01*
X-535D01*
Y-172D01*
X-535Y-173D01*
X-535D01*
Y-177D01*
X-535Y-177D01*
Y-207D01*
X-495D01*
Y-212D01*
X-490D01*
Y-248D01*
X-472D01*
X-470Y-252D01*
X-470Y-253D01*
X-471Y-260D01*
X-470Y-267D01*
X-467Y-273D01*
X-463Y-278D01*
X-458Y-282D01*
X-452Y-285D01*
X-445Y-286D01*
X-438Y-285D01*
X-432Y-282D01*
X-427Y-278D01*
X-423Y-273D01*
X-420Y-267D01*
X-419Y-260D01*
X-420Y-253D01*
X-423Y-247D01*
X-427Y-242D01*
X-430Y-239D01*
Y-175D01*
X-431Y-169D01*
X-434Y-164D01*
X-455Y-143D01*
Y-102D01*
X-480D01*
Y-78D01*
X-455D01*
Y-8D01*
X-455Y-7D01*
Y-3D01*
X-455Y-2D01*
Y68D01*
X-480D01*
Y83D01*
X-450D01*
Y107D01*
X-440D01*
X-434Y108D01*
X-429Y111D01*
X-375Y165D01*
X-323D01*
X-322Y165D01*
X-318D01*
X-317Y165D01*
X-299D01*
Y127D01*
X-304Y127D01*
X-324Y122D01*
X-342Y115D01*
X-360Y104D01*
X-375Y91D01*
X-388Y76D01*
X-399Y58D01*
X-406Y40D01*
X-411Y20D01*
X-413Y0D01*
X-411Y-20D01*
X-406Y-40D01*
X-399Y-58D01*
X-388Y-76D01*
X-375Y-91D01*
X-360Y-104D01*
X-342Y-115D01*
X-324Y-122D01*
X-307Y-126D01*
X-306Y-132D01*
X-308Y-134D01*
X-313Y-141D01*
X-317Y-149D01*
X-318Y-157D01*
X-317Y-166D01*
X-313Y-174D01*
X-308Y-181D01*
X-303Y-185D01*
X-304Y-190D01*
X-312D01*
X-313Y-190D01*
X-317D01*
X-318Y-190D01*
X-347D01*
Y-230D01*
Y-270D01*
X-318D01*
X-317Y-270D01*
X-313D01*
X-312Y-270D01*
X-242D01*
Y-190D01*
X-264D01*
X-265Y-185D01*
X-260Y-181D01*
X-255Y-174D01*
X-251Y-166D01*
X-250Y-157D01*
X-251Y-149D01*
X-255Y-141D01*
X-260Y-134D01*
X-262Y-132D01*
X-261Y-126D01*
X-244Y-122D01*
X-226Y-115D01*
X-208Y-104D01*
X-193Y-91D01*
X-180Y-76D01*
X-170Y-58D01*
X-162Y-40D01*
X-157Y-20D01*
X-156Y0D01*
X-157Y20D01*
X-162Y40D01*
X-170Y58D01*
X-180Y76D01*
X-193Y91D01*
X-208Y104D01*
X-226Y115D01*
X-244Y122D01*
X-264Y127D01*
X-269Y127D01*
Y165D01*
X-247D01*
Y245D01*
X-317D01*
X-318Y245D01*
X-322D01*
X-323Y245D01*
X-393D01*
Y191D01*
X-445Y139D01*
X-450Y142D01*
Y166D01*
X-517D01*
X-540Y189D01*
X-538Y194D01*
X-537Y194D01*
X-537Y194D01*
X-537Y194D01*
X-500D01*
Y230D01*
X-540D01*
X-540Y197D01*
Y197D01*
Y197D01*
X-540Y196D01*
X-542Y196D01*
X-545Y194D01*
X-547Y196D01*
X-552Y199D01*
X-558Y200D01*
X-561D01*
Y275D01*
D02*
G37*
G36*
X174Y-95D02*
X164Y-96D01*
X151Y-101D01*
X139Y-110D01*
X131Y-122D01*
X125Y-135D01*
X124Y-145D01*
X174D01*
Y-95D01*
D02*
G37*
G36*
X-111Y-6D02*
X-146D01*
Y-50D01*
X-111D01*
Y-6D01*
D02*
G37*
G36*
Y48D02*
X-146D01*
Y4D01*
X-111D01*
Y48D01*
D02*
G37*
G36*
X-66D02*
X-101D01*
Y4D01*
X-66D01*
Y48D01*
D02*
G37*
G36*
Y-6D02*
X-101D01*
Y-50D01*
X-66D01*
Y-6D01*
D02*
G37*
G36*
X-885Y116D02*
X-975D01*
Y33D01*
X-970D01*
Y16D01*
X-991Y-5D01*
X-1049D01*
X-1067Y13D01*
Y22D01*
X-1066Y23D01*
X-1061Y30D01*
X-1060Y38D01*
Y90D01*
X-1061Y98D01*
X-1066Y105D01*
X-1073Y110D01*
X-1082Y112D01*
X-1091Y110D01*
X-1098Y105D01*
X-1103Y98D01*
X-1104Y90D01*
Y38D01*
X-1103Y30D01*
X-1098Y23D01*
X-1097Y22D01*
Y7D01*
X-1096Y1D01*
X-1093Y-4D01*
X-1066Y-31D01*
X-1061Y-34D01*
X-1055Y-35D01*
X-1024D01*
Y-55D01*
X-1061D01*
Y-315D01*
X-957D01*
Y-115D01*
X-848D01*
Y-155D01*
X-730D01*
Y-45D01*
X-848D01*
Y-85D01*
X-957D01*
Y-55D01*
X-994D01*
Y-35D01*
X-985D01*
X-979Y-34D01*
X-974Y-31D01*
X-944Y-1D01*
X-941Y4D01*
X-940Y10D01*
Y33D01*
X-885D01*
Y116D01*
D02*
G37*
G36*
X234Y-155D02*
X184D01*
Y-205D01*
X193Y-203D01*
X207Y-198D01*
X218Y-189D01*
X227Y-177D01*
X233Y-164D01*
X234Y-155D01*
D02*
G37*
G36*
X-562Y115D02*
X-680D01*
Y5D01*
X-636D01*
Y-45D01*
X-680D01*
Y-155D01*
X-664D01*
Y-205D01*
X-690D01*
Y-295D01*
X-607D01*
Y-205D01*
X-633D01*
Y-155D01*
X-561D01*
Y-45D01*
X-605D01*
Y5D01*
X-562D01*
Y115D01*
D02*
G37*
G36*
X-357Y-235D02*
X-388D01*
Y-270D01*
X-357D01*
Y-235D01*
D02*
G37*
G36*
X-764Y-255D02*
X-800D01*
Y-295D01*
X-764D01*
Y-255D01*
D02*
G37*
G36*
X-717D02*
X-754D01*
Y-295D01*
X-717D01*
Y-255D01*
D02*
G37*
G36*
X-500Y-217D02*
X-535D01*
Y-248D01*
X-500D01*
Y-217D01*
D02*
G37*
G36*
X-357Y-190D02*
X-388D01*
Y-225D01*
X-357D01*
Y-190D01*
D02*
G37*
G36*
X174Y-155D02*
X124D01*
X125Y-164D01*
X131Y-177D01*
X139Y-189D01*
X151Y-198D01*
X164Y-203D01*
X174Y-205D01*
Y-155D01*
D02*
G37*
G36*
X-764Y-205D02*
X-800D01*
Y-245D01*
X-764D01*
Y-205D01*
D02*
G37*
G36*
X-717D02*
X-754D01*
Y-245D01*
X-717D01*
Y-205D01*
D02*
G37*
G36*
X-1037Y59D02*
X-1054D01*
Y38D01*
X-1053Y30D01*
X-1048Y23D01*
X-1041Y18D01*
X-1037Y17D01*
Y59D01*
D02*
G37*
G36*
X-1260Y233D02*
X-1295D01*
Y202D01*
X-1260D01*
Y233D01*
D02*
G37*
G36*
X-1215D02*
X-1250D01*
Y202D01*
X-1215D01*
Y233D01*
D02*
G37*
G36*
X-1010Y244D02*
X-1027D01*
Y202D01*
X-1023Y203D01*
X-1016Y208D01*
X-1011Y215D01*
X-1010Y223D01*
Y244D01*
D02*
G37*
G36*
X-1082Y297D02*
X-1091Y295D01*
X-1098Y290D01*
X-1103Y283D01*
X-1104Y275D01*
Y223D01*
X-1103Y215D01*
X-1098Y208D01*
X-1091Y203D01*
X-1082Y201D01*
X-1073Y203D01*
X-1066Y208D01*
X-1061Y215D01*
X-1060Y223D01*
Y275D01*
X-1061Y283D01*
X-1066Y290D01*
X-1073Y295D01*
X-1082Y297D01*
D02*
G37*
G36*
X-1037Y244D02*
X-1054D01*
Y223D01*
X-1053Y215D01*
X-1048Y208D01*
X-1041Y203D01*
X-1037Y202D01*
Y244D01*
D02*
G37*
G36*
X-1027Y296D02*
Y254D01*
X-1010D01*
Y275D01*
X-1011Y283D01*
X-1016Y290D01*
X-1023Y295D01*
X-1027Y296D01*
D02*
G37*
G36*
X-1182Y297D02*
X-1191Y295D01*
X-1198Y290D01*
X-1204Y290D01*
X-1207Y292D01*
X-1213Y295D01*
X-1220Y296D01*
X-1227Y295D01*
X-1233Y292D01*
X-1238Y288D01*
X-1242Y283D01*
X-1245Y277D01*
X-1246Y270D01*
X-1245Y263D01*
X-1242Y257D01*
X-1238Y252D01*
X-1233Y248D01*
X-1227Y245D01*
X-1220Y244D01*
X-1216Y245D01*
X-1210Y238D01*
X-1205Y235D01*
X-1204Y235D01*
Y223D01*
X-1203Y215D01*
X-1198Y208D01*
X-1191Y203D01*
X-1182Y201D01*
X-1173Y203D01*
X-1166Y208D01*
X-1161Y215D01*
X-1160Y223D01*
Y275D01*
X-1161Y283D01*
X-1166Y290D01*
X-1173Y295D01*
X-1182Y297D01*
D02*
G37*
G36*
X-1037Y296D02*
X-1041Y295D01*
X-1048Y290D01*
X-1053Y283D01*
X-1054Y275D01*
Y254D01*
X-1037D01*
Y296D01*
D02*
G37*
G36*
X-500Y277D02*
X-540D01*
Y240D01*
X-500D01*
Y277D01*
D02*
G37*
G36*
X-450D02*
X-490D01*
Y240D01*
X-450D01*
Y277D01*
D02*
G37*
G36*
X174Y145D02*
X124D01*
X125Y135D01*
X131Y122D01*
X139Y110D01*
X151Y101D01*
X164Y96D01*
X174Y95D01*
Y145D01*
D02*
G37*
G36*
X234D02*
X184D01*
Y95D01*
X193Y96D01*
X207Y101D01*
X218Y110D01*
X227Y122D01*
X233Y135D01*
X234Y145D01*
D02*
G37*
G36*
X-1027Y111D02*
Y69D01*
X-1010D01*
Y90D01*
X-1011Y98D01*
X-1016Y105D01*
X-1023Y110D01*
X-1027Y111D01*
D02*
G37*
G36*
X-1010Y59D02*
X-1027D01*
Y17D01*
X-1023Y18D01*
X-1016Y23D01*
X-1011Y30D01*
X-1010Y38D01*
Y59D01*
D02*
G37*
G36*
X-1037Y111D02*
X-1041Y110D01*
X-1048Y105D01*
X-1053Y98D01*
X-1054Y90D01*
Y69D01*
X-1037D01*
Y111D01*
D02*
G37*
G36*
X-730Y275D02*
X-848D01*
Y200D01*
X-885D01*
Y227D01*
X-975D01*
Y144D01*
X-885D01*
Y170D01*
X-848D01*
Y165D01*
X-805D01*
Y115D01*
X-849D01*
Y5D01*
X-730D01*
Y115D01*
X-774D01*
Y165D01*
X-730D01*
Y275D01*
D02*
G37*
G36*
X-1132Y297D02*
X-1141Y295D01*
X-1148Y290D01*
X-1153Y283D01*
X-1154Y275D01*
Y223D01*
X-1153Y215D01*
X-1148Y208D01*
X-1141Y203D01*
X-1132Y201D01*
X-1123Y203D01*
X-1116Y208D01*
X-1111Y215D01*
X-1110Y223D01*
Y275D01*
X-1111Y283D01*
X-1116Y290D01*
X-1123Y295D01*
X-1132Y297D01*
D02*
G37*
G36*
X-450Y230D02*
X-490D01*
Y194D01*
X-450D01*
Y230D01*
D02*
G37*
G36*
X174Y205D02*
X164Y203D01*
X151Y198D01*
X139Y189D01*
X131Y177D01*
X125Y164D01*
X124Y155D01*
X174D01*
Y205D01*
D02*
G37*
G36*
X184D02*
Y155D01*
X234D01*
X233Y164D01*
X227Y177D01*
X218Y189D01*
X207Y198D01*
X193Y203D01*
X184Y205D01*
D02*
G37*
%LPD*%
D10*
X-284Y-157D02*
D03*
D11*
X-106Y-1D02*
D03*
D12*
X-649Y-250D02*
D03*
X-759D02*
D03*
D13*
X-495Y125D02*
D03*
Y235D02*
D03*
X-930Y75D02*
D03*
Y185D02*
D03*
D14*
X-352Y-230D02*
D03*
X-278D02*
D03*
X-283Y205D02*
D03*
X-357D02*
D03*
D15*
X-1255Y52D02*
D03*
Y-22D02*
D03*
X-495Y-212D02*
D03*
Y-138D02*
D03*
Y-42D02*
D03*
Y32D02*
D03*
X-1255Y197D02*
D03*
Y123D02*
D03*
D16*
X-1182Y64D02*
D03*
X-1132D02*
D03*
X-1082D02*
D03*
X-1032D02*
D03*
X-1182Y249D02*
D03*
X-1132D02*
D03*
X-1082D02*
D03*
X-1032D02*
D03*
D17*
X-1009Y-185D02*
D03*
X-1161D02*
D03*
D18*
X-621Y60D02*
D03*
X-790D02*
D03*
X-789Y-100D02*
D03*
X-620D02*
D03*
X-789Y220D02*
D03*
X-620D02*
D03*
D19*
X-1362Y97D02*
D03*
Y-97D02*
D03*
D20*
X-1348Y26D02*
D03*
Y51D02*
D03*
Y-51D02*
D03*
Y-26D02*
D03*
Y0D02*
D03*
D21*
X-1452Y33D02*
D03*
Y-33D02*
D03*
D22*
Y-115D02*
D03*
Y115D02*
D03*
D23*
X-284Y0D02*
Y205D01*
X-495Y-140D02*
Y-29D01*
X-558Y185D02*
X-495Y122D01*
X-440D01*
X-357Y205D01*
X-285Y-223D02*
Y-158D01*
X-495Y32D02*
Y122D01*
X-585Y185D02*
X-558D01*
X-620Y220D02*
X-585Y185D01*
X-649Y-250D02*
Y-128D01*
X-1009Y-100D02*
Y-20D01*
Y-155D02*
Y-100D01*
X-789D01*
X-930Y185D02*
X-824D01*
X-955Y10D02*
Y78D01*
X-985Y-20D02*
X-955Y10D01*
X-1009Y-20D02*
X-985D01*
X-1055D02*
X-1009D01*
X-1082Y7D02*
X-1055Y-20D01*
X-1161Y-185D02*
Y-116D01*
X-1255Y-22D02*
X-1161Y-116D01*
X-1199Y249D02*
X-1182D01*
X-1220Y270D02*
X-1199Y249D01*
X-1452Y-115D02*
Y-33D01*
Y-227D02*
Y-115D01*
Y115D02*
Y277D01*
Y33D02*
Y115D01*
Y-33D02*
Y33D01*
X-1300Y10D02*
X-1268Y-22D01*
X-1300Y10D02*
Y42D01*
X-1309Y51D02*
X-1300Y42D01*
Y86D02*
X-1255Y131D01*
X-1300Y60D02*
Y86D01*
X-1309Y51D02*
X-1300Y60D01*
X-1348Y51D02*
X-1309D01*
X-1146Y131D02*
X-1132Y117D01*
Y64D02*
Y117D01*
X-1082Y7D02*
Y64D01*
X-790Y60D02*
Y220D01*
X-621Y-100D02*
Y60D01*
X-1132Y-126D02*
Y64D01*
X-1236Y37D02*
X-1223D01*
X-1196Y64D01*
X-1182D01*
X-1255Y131D02*
X-1146D01*
X-1145D01*
X-495Y-138D02*
X-482D01*
X-445Y-175D01*
Y-260D02*
Y-175D01*
D24*
X-284Y0D02*
D03*
D25*
X179Y150D02*
D03*
Y-150D02*
D03*
D26*
X-705Y-200D02*
D03*
Y-100D02*
D03*
Y65D02*
D03*
Y230D02*
D03*
X-1220Y270D02*
D03*
X-1130Y165D02*
D03*
X-570Y305D02*
D03*
Y145D02*
D03*
Y-20D02*
D03*
X-565Y-205D02*
D03*
X-930Y-250D02*
D03*
X-935Y-55D02*
D03*
X-1035Y165D02*
D03*
X-1270Y-155D02*
D03*
X-1085Y-160D02*
D03*
X-445Y-260D02*
D03*
X0Y0D02*
D03*
Y100D02*
D03*
Y200D02*
D03*
Y300D02*
D03*
Y-100D02*
D03*
Y-200D02*
D03*
Y-300D02*
D03*
X300D02*
D03*
Y-200D02*
D03*
Y-100D02*
D03*
Y300D02*
D03*
Y200D02*
D03*
Y100D02*
D03*
Y0D02*
D03*
X-100Y-300D02*
D03*
Y-200D02*
D03*
Y300D02*
D03*
Y200D02*
D03*
X100Y-300D02*
D03*
Y-200D02*
D03*
Y-100D02*
D03*
Y300D02*
D03*
Y200D02*
D03*
Y100D02*
D03*
Y0D02*
D03*
X-200Y300D02*
D03*
Y-300D02*
D03*
X-430Y90D02*
D03*
Y-90D02*
D03*
M02*
